<svg width="110" height="40" viewBox="0 0 110 40" fill="none" xmlns="http://www.w3.org/2000/svg">
<path d="M10.3729 36.8656C10.3729 37.747 9.65114 38.4688 8.77022 38.4688H2.35902C1.47762 38.4688 0.755859 37.747 0.755859 36.8656V30.4544C0.755859 29.573 1.47762 28.8517 2.35902 28.8517H8.77022C9.65114 28.8517 10.3729 29.573 10.3729 30.4544V36.8656Z" fill="url(#paint0_linear_245_442)"/>
<path d="M23.1952 36.8656C23.1952 37.747 22.4734 38.4688 21.5925 38.4688H15.1813C14.2999 38.4688 13.5781 37.747 13.5781 36.8656V30.4544C13.5781 29.573 14.2999 28.8517 15.1813 28.8517H21.5925C22.4734 28.8517 23.1952 29.573 23.1952 30.4544V36.8656Z" fill="url(#paint1_linear_245_442)"/>
<path d="M36.0174 36.8656C36.0174 37.747 35.2957 38.4688 34.4147 38.4688H28.0036C27.1221 38.4688 26.4004 37.747 26.4004 36.8656V30.4544C26.4004 29.573 27.1221 28.8517 28.0036 28.8517H34.4147C35.2957 28.8517 36.0174 29.573 36.0174 30.4544V36.8656Z" fill="url(#paint2_linear_245_442)"/>
<path d="M10.3729 24.0432C10.3729 24.9246 9.65114 25.6459 8.77022 25.6459H2.35902C1.47762 25.6459 0.755859 24.9246 0.755859 24.0432V17.632C0.755859 16.7506 1.47762 16.0293 2.35902 16.0293H8.77022C9.65114 16.0293 10.3729 16.7506 10.3729 17.632V24.0432Z" fill="url(#paint3_linear_245_442)"/>
<path d="M23.1952 24.0432C23.1952 24.9246 22.4734 25.6459 21.5925 25.6459H15.1813C14.2999 25.6459 13.5781 24.9246 13.5781 24.0432V17.632C13.5781 16.7506 14.2999 16.0293 15.1813 16.0293H21.5925C22.4734 16.0293 23.1952 16.7506 23.1952 17.632V24.0432Z" fill="url(#paint4_linear_245_442)"/>
<path d="M31.6916 26.5071C30.8761 26.8432 29.9341 26.4537 29.5975 25.6396L27.1433 19.717C26.8072 18.9034 27.1966 17.9609 28.0107 17.6229L33.9348 15.1681C34.7484 14.8301 35.6904 15.2215 36.0275 16.0356L38.4818 21.9602C38.8179 22.7738 38.4284 23.7157 37.6143 24.0528L31.6916 26.5071Z" fill="url(#paint5_linear_245_442)"/>
<path d="M10.3729 11.2208C10.3729 12.1022 9.65114 12.8235 8.77022 12.8235H2.35902C1.47762 12.8235 0.755859 12.1022 0.755859 11.2208V4.80959C0.755859 3.92819 1.47762 3.20691 2.35902 3.20691H8.77022C9.65114 3.20691 10.3729 3.92819 10.3729 4.80959V11.2208Z" fill="url(#paint6_linear_245_442)"/>
<path d="M21.602 12.8172C21.2654 13.6308 20.3215 14.0222 19.5079 13.6847L13.5848 11.2304C12.7707 10.8938 12.3793 9.9499 12.7173 9.1363L15.1701 3.21365C15.5082 2.40004 16.4507 2.00815 17.2643 2.34619L23.1888 4.80046C24.0024 5.13705 24.3924 6.08097 24.0558 6.89457L21.602 12.8172Z" fill="url(#paint7_linear_245_442)"/>
<path d="M38.7568 5.00194C39.38 5.62512 39.38 6.64549 38.7568 7.26868L34.2238 11.8031C33.6011 12.4263 32.5802 12.4263 31.9575 11.8031L27.4241 7.26868C26.8014 6.64549 26.8014 5.62512 27.4241 5.00194L31.9575 0.467027C32.5802 -0.155676 33.6011 -0.155676 34.2238 0.467027L38.7568 5.00194Z" fill="#F0A519"/>
<path d="M47.5996 14V4.33081H49.6373V12.3128H53.784V14H47.5996Z" fill="#2D2D2D"/>
<path d="M55.1533 14V4.33081H61.6686V6.01805H57.1909V8.28934H61.3247V9.94414H57.1909V12.3128H61.6816V14H55.1533Z" fill="#2D2D2D"/>
<path d="M62.9211 6.01805V4.33081H70.8576V6.01805H67.9114V14H65.8738V6.01805H62.9211Z" fill="#2D2D2D"/>
<path d="M71.8116 6.01805V4.33081H79.7481V6.01805H76.8019V14H74.7642V6.01805H71.8116Z" fill="#2D2D2D"/>
<path d="M81.0719 14V4.33081H87.5873V6.01805H83.1096V8.28934H87.2433V9.94414H83.1096V12.3128H87.6003V14H81.0719Z" fill="#2D2D2D"/>
<path d="M89.2096 14V4.33081H93.0124C94.1113 4.33081 94.9636 4.61851 95.5692 5.1939C96.1792 5.76929 96.4842 6.53504 96.4842 7.49115C96.4842 8.15307 96.3371 8.71981 96.043 9.19137C95.7488 9.65861 95.327 10.009 94.7775 10.2427L96.8282 14H94.5699L92.7399 10.5736H91.2473V14H89.2096ZM91.2473 8.93179H92.6295C93.7976 8.93179 94.3817 8.45158 94.3817 7.49115C94.3817 7.01093 94.2367 6.6432 93.9469 6.38795C93.657 6.1327 93.2157 6.00508 92.623 6.00508H91.2473V8.93179Z" fill="#2D2D2D"/>
<path d="M49.2169 18.072H50.4475V19.3026H49.2169V18.072ZM49.2169 19.3026H50.4475V20.5332H49.2169V19.3026ZM49.2169 20.5332H50.4475V21.7638H49.2169V20.5332ZM49.2169 21.7638H50.4475V22.9944H49.2169V21.7638ZM49.2169 22.9944H50.4475V24.2249H49.2169V22.9944ZM49.2169 24.2249H50.4475V25.4555H49.2169V24.2249ZM49.2169 25.4555H50.4475V26.6861H49.2169V25.4555ZM49.2169 26.6861H50.4475V27.9167H49.2169V26.6861ZM49.2169 27.9167H50.4475V29.1473H49.2169V27.9167ZM49.2169 29.1473H50.4475V30.3778H49.2169V29.1473ZM49.2169 30.3778H50.4475V31.6084H49.2169V30.3778ZM49.2169 31.6084H50.4475V32.839H49.2169V31.6084ZM49.2169 32.839H50.4475V34.0696H49.2169V32.839ZM49.2169 34.0696H50.4475V35.3002H49.2169V34.0696ZM49.2169 35.3002H50.4475V36.5308H49.2169V35.3002ZM47.9863 35.3002H49.2169V36.5308H47.9863V35.3002ZM47.9863 34.0696H49.2169V35.3002H47.9863V34.0696ZM47.9863 32.839H49.2169V34.0696H47.9863V32.839ZM47.9863 19.3026H49.2169V20.5332H47.9863V19.3026ZM47.9863 18.072H49.2169V19.3026H47.9863V18.072ZM47.9863 20.5332H49.2169V21.7638H47.9863V20.5332ZM47.9863 21.7638H49.2169V22.9944H47.9863V21.7638ZM47.9863 22.9944H49.2169V24.2249H47.9863V22.9944ZM47.9863 24.2249H49.2169V25.4555H47.9863V24.2249ZM47.9863 25.4555H49.2169V26.6861H47.9863V25.4555ZM47.9863 26.6861H49.2169V27.9167H47.9863V26.6861ZM47.9863 27.9167H49.2169V29.1473H47.9863V27.9167ZM47.9863 29.1473H49.2169V30.3778H47.9863V29.1473ZM47.9863 30.3778H49.2169V31.6084H47.9863V30.3778ZM47.9863 31.6084H49.2169V32.839H47.9863V31.6084ZM50.4475 35.3002H51.6781V36.5308H50.4475V35.3002ZM50.4475 34.0696H51.6781V35.3002H50.4475V34.0696ZM50.4475 32.839H51.6781V34.0696H50.4475V32.839ZM50.4475 31.6084H51.6781V32.839H50.4475V31.6084ZM50.4475 29.1473H51.6781V30.3778H50.4475V29.1473ZM50.4475 27.9167H51.6781V29.1473H50.4475V27.9167ZM50.4475 26.6861H51.6781V27.9167H50.4475V26.6861ZM50.4475 25.4555H51.6781V26.6861H50.4475V25.4555ZM50.4475 24.2249H51.6781V25.4555H50.4475V24.2249ZM50.4475 22.9944H51.6781V24.2249H50.4475V22.9944ZM50.4475 18.072H51.6781V19.3026H50.4475V18.072ZM50.4475 19.3026H51.6781V20.5332H50.4475V19.3026ZM50.4475 20.5332H51.6781V21.7638H50.4475V20.5332ZM50.4475 21.7638H51.6781V22.9944H50.4475V21.7638ZM50.4475 30.3778H51.6781V31.6084H50.4475V30.3778ZM51.6781 35.3002H52.9087V36.5308H51.6781V35.3002ZM52.9087 35.3002H54.1392V36.5308H52.9087V35.3002ZM54.1392 35.3002H55.3698V36.5308H54.1392V35.3002ZM54.1392 34.0696H55.3698V35.3002H54.1392V34.0696ZM54.1392 32.839H55.3698V34.0696H54.1392V32.839ZM52.9087 32.839H54.1392V34.0696H52.9087V32.839ZM52.9087 34.0696H54.1392V35.3002H52.9087V34.0696ZM51.6781 34.0696H52.9087V35.3002H51.6781V34.0696ZM51.6781 32.839H52.9087V34.0696H51.6781V32.839ZM55.3698 32.839H56.6004V34.0696H55.3698V32.839ZM55.3698 34.0696H56.6004V35.3002H55.3698V34.0696ZM55.3698 35.3002H56.6004V36.5308H55.3698V35.3002ZM56.6004 35.3002H57.831V36.5308H56.6004V35.3002ZM56.6004 34.0696H57.831V35.3002H56.6004V34.0696ZM56.6004 32.839H57.831V34.0696H56.6004V32.839Z" fill="#F0A519"/>
<path d="M60.2837 35.3002H61.5143V36.5308H60.2837V35.3002ZM61.5143 35.3002H62.7449V36.5308H61.5143V35.3002ZM62.7449 35.3002H63.9755V36.5308H62.7449V35.3002ZM62.7449 34.0696H63.9755V35.3002H62.7449V34.0696ZM62.7449 32.839H63.9755V34.0696H62.7449V32.839ZM62.7449 31.6084H63.9755V32.839H62.7449V31.6084ZM62.7449 30.3778H63.9755V31.6084H62.7449V30.3778ZM62.7449 29.1473H63.9755V30.3778H62.7449V29.1473ZM62.7449 27.9167H63.9755V29.1473H62.7449V27.9167ZM62.7449 26.6861H63.9755V27.9167H62.7449V26.6861ZM62.7449 25.4555H63.9755V26.6861H62.7449V25.4555ZM61.5143 25.4555H62.7449V26.6861H61.5143V25.4555ZM61.5143 24.2249H62.7449V25.4555H61.5143V24.2249ZM60.2837 25.4555H61.5143V26.6861H60.2837V25.4555ZM60.2837 26.6861H61.5143V27.9167H60.2837V26.6861ZM60.2837 27.9167H61.5143V29.1473H60.2837V27.9167ZM60.2837 29.1473H61.5143V30.3778H60.2837V29.1473ZM60.2837 30.3778H61.5143V31.6084H60.2837V30.3778ZM60.2837 31.6084H61.5143V32.839H60.2837V31.6084ZM60.2837 32.839H61.5143V34.0696H60.2837V32.839ZM60.2837 34.0696H61.5143V35.3002H60.2837V34.0696ZM61.5143 34.0696H62.7449V35.3002H61.5143V34.0696ZM61.5143 32.839H62.7449V34.0696H61.5143V32.839ZM61.5143 31.6084H62.7449V32.839H61.5143V31.6084ZM60.2837 24.2249H61.5143V25.4555H60.2837V24.2249ZM62.7449 24.2249H63.9755V25.4555H62.7449V24.2249ZM61.5143 26.6861H62.7449V27.9167H61.5143V26.6861ZM61.5143 27.9167H62.7449V29.1473H61.5143V27.9167ZM61.5143 29.1473H62.7449V30.3778H61.5143V29.1473ZM61.5143 30.3778H62.7449V31.6084H61.5143V30.3778ZM60.2837 18.072H61.5143V19.3026H60.2837V18.072ZM61.5143 18.072H62.7449V19.3026H61.5143V18.072ZM62.7449 18.072H63.9755V19.3026H62.7449V18.072ZM62.7449 19.3026H63.9755V20.5332H62.7449V19.3026ZM62.7449 20.5332H63.9755V21.7638H62.7449V20.5332ZM62.7449 21.7638H63.9755V22.9944H62.7449V21.7638ZM62.7449 22.9944H63.9755V24.2249H62.7449V22.9944ZM61.5143 22.9944H62.7449V24.2249H61.5143V22.9944ZM61.5143 21.7638H62.7449V22.9944H61.5143V21.7638ZM61.5143 20.5332H62.7449V21.7638H61.5143V20.5332ZM61.5143 19.3026H62.7449V20.5332H61.5143V19.3026ZM60.2837 19.3026H61.5143V20.5332H60.2837V19.3026ZM60.2837 20.5332H61.5143V21.7638H60.2837V20.5332ZM60.2837 21.7638H61.5143V22.9944H60.2837V21.7638ZM60.2837 22.9944H61.5143V24.2249H60.2837V22.9944Z" fill="#F0A519"/>
<path d="M66.4487 18.072H67.6792V19.3026H66.4487V18.072ZM67.6792 18.072H68.9098V19.3026H67.6792V18.072ZM68.9098 18.072H70.1404V19.3026H68.9098V18.072ZM70.1404 18.072H71.371V19.3026H70.1404V18.072ZM70.1404 19.3026H71.371V20.5332H70.1404V19.3026ZM70.1404 20.5332H71.371V21.7638H70.1404V20.5332ZM70.1404 21.7638H71.371V22.9944H70.1404V21.7638ZM66.4487 19.3026H67.6792V20.5332H66.4487V19.3026ZM66.4487 20.5332H67.6792V21.7638H66.4487V20.5332ZM66.4487 21.7638H67.6792V22.9944H66.4487V21.7638ZM66.4487 24.2249H67.6792V25.4555H66.4487V24.2249ZM66.4487 25.4555H67.6792V26.6861H66.4487V25.4555ZM66.4487 26.6861H67.6792V27.9167H66.4487V26.6861ZM66.4487 27.9167H67.6792V29.1473H66.4487V27.9167ZM66.4487 29.1473H67.6792V30.3778H66.4487V29.1473ZM67.6792 30.3778H68.9098V31.6084H67.6792V30.3778ZM67.6792 31.6084H68.9098V32.839H67.6792V31.6084ZM67.6792 32.839H68.9098V34.0696H67.6792V32.839ZM67.6792 34.0696H68.9098V35.3002H67.6792V34.0696ZM67.6792 35.3002H68.9098V36.5308H67.6792V35.3002ZM66.4487 22.9944H67.6792V24.2249H66.4487V22.9944ZM66.4487 30.3778H67.6792V31.6084H66.4487V30.3778ZM66.4487 31.6084H67.6792V32.839H66.4487V31.6084ZM66.4487 32.839H67.6792V34.0696H66.4487V32.839ZM66.4487 34.0696H67.6792V35.3002H66.4487V34.0696ZM66.4487 35.3002H67.6792V36.5308H66.4487V35.3002ZM68.9098 35.3002H70.1404V36.5308H68.9098V35.3002ZM68.9098 34.0696H70.1404V35.3002H68.9098V34.0696ZM68.9098 32.839H70.1404V34.0696H68.9098V32.839ZM68.9098 31.6084H70.1404V32.839H68.9098V31.6084ZM68.9098 29.1473H70.1404V30.3778H68.9098V29.1473ZM68.9098 27.9167H70.1404V29.1473H68.9098V27.9167ZM68.9098 25.4555H70.1404V26.6861H68.9098V25.4555ZM68.9098 24.2249H70.1404V25.4555H68.9098V24.2249ZM68.9098 22.9944H70.1404V24.2249H68.9098V22.9944ZM68.9098 26.6861H70.1404V27.9167H68.9098V26.6861ZM68.9098 30.3778H70.1404V31.6084H68.9098V30.3778ZM67.6792 29.1473H68.9098V30.3778H67.6792V29.1473ZM67.6792 27.9167H68.9098V29.1473H67.6792V27.9167ZM67.6792 26.6861H68.9098V27.9167H67.6792V26.6861ZM67.6792 25.4555H68.9098V26.6861H67.6792V25.4555ZM67.6792 24.2249H68.9098V25.4555H67.6792V24.2249ZM67.6792 22.9944H68.9098V24.2249H67.6792V22.9944ZM67.6792 21.7638H68.9098V22.9944H67.6792V21.7638ZM67.6792 20.5332H68.9098V21.7638H67.6792V20.5332ZM67.6792 19.3026H68.9098V20.5332H67.6792V19.3026ZM68.9098 19.3026H70.1404V20.5332H68.9098V19.3026ZM68.9098 20.5332H70.1404V21.7638H68.9098V20.5332ZM68.9098 21.7638H70.1404V22.9944H68.9098V21.7638ZM70.1404 22.9944H71.371V24.2249H70.1404V22.9944ZM70.1404 24.2249H71.371V25.4555H70.1404V24.2249ZM71.371 24.2249H72.6016V25.4555H71.371V24.2249ZM71.371 25.4555H72.6016V26.6861H71.371V25.4555ZM70.1404 25.4555H71.371V26.6861H70.1404V25.4555ZM71.371 22.9944H72.6016V24.2249H71.371V22.9944ZM71.371 21.7638H72.6016V22.9944H71.371V21.7638ZM71.371 20.5332H72.6016V21.7638H71.371V20.5332ZM71.371 26.6861H72.6016V27.9167H71.371V26.6861ZM72.6016 26.6861H73.8322V27.9167H72.6016V26.6861ZM72.6016 25.4555H73.8322V26.6861H72.6016V25.4555ZM72.6016 24.2249H73.8322V25.4555H72.6016V24.2249ZM72.6016 22.9944H73.8322V24.2249H72.6016V22.9944ZM71.371 27.9167H72.6016V29.1473H71.371V27.9167ZM72.6016 27.9167H73.8322V29.1473H72.6016V27.9167ZM73.8322 27.9167H75.0627V29.1473H73.8322V27.9167ZM73.8322 26.6861H75.0627V27.9167H73.8322V26.6861ZM73.8322 25.4555H75.0627V26.6861H73.8322V25.4555ZM72.6016 30.3778H73.8322V31.6084H72.6016V30.3778ZM72.6016 29.1473H73.8322V30.3778H72.6016V29.1473ZM73.8322 29.1473H75.0627V30.3778H73.8322V29.1473ZM73.8322 30.3778H75.0627V31.6084H73.8322V30.3778ZM75.0627 29.1473H76.2933V30.3778H75.0627V29.1473ZM75.0627 27.9167H76.2933V29.1473H75.0627V27.9167ZM75.0627 30.3778H76.2933V31.6084H75.0627V30.3778ZM75.0627 31.6084H76.2933V32.839H75.0627V31.6084ZM73.8322 31.6084H75.0627V32.839H73.8322V31.6084ZM73.8322 32.839H75.0627V34.0696H73.8322V32.839ZM75.0627 32.839H76.2933V34.0696H75.0627V32.839ZM75.0627 34.0696H76.2933V35.3002H75.0627V34.0696ZM75.0627 35.3002H76.2933V36.5308H75.0627V35.3002ZM76.2933 35.3002H77.5239V36.5308H76.2933V35.3002ZM77.5239 35.3002H78.7545V36.5308H77.5239V35.3002ZM78.7545 35.3002H79.9851V36.5308H78.7545V35.3002ZM78.7545 34.0696H79.9851V35.3002H78.7545V34.0696ZM77.5239 32.839H78.7545V34.0696H77.5239V32.839ZM77.5239 31.6084H78.7545V32.839H77.5239V31.6084ZM77.5239 30.3778H78.7545V31.6084H77.5239V30.3778ZM77.5239 29.1473H78.7545V30.3778H77.5239V29.1473ZM77.5239 27.9167H78.7545V29.1473H77.5239V27.9167ZM78.7545 30.3778H79.9851V31.6084H78.7545V30.3778ZM78.7545 31.6084H79.9851V32.839H78.7545V31.6084ZM78.7545 32.839H79.9851V34.0696H78.7545V32.839ZM77.5239 34.0696H78.7545V35.3002H77.5239V34.0696ZM76.2933 34.0696H77.5239V35.3002H76.2933V34.0696ZM76.2933 32.839H77.5239V34.0696H76.2933V32.839ZM76.2933 31.6084H77.5239V32.839H76.2933V31.6084ZM76.2933 30.3778H77.5239V31.6084H76.2933V30.3778ZM76.2933 29.1473H77.5239V30.3778H76.2933V29.1473ZM76.2933 27.9167H77.5239V29.1473H76.2933V27.9167ZM76.2933 26.6861H77.5239V27.9167H76.2933V26.6861ZM77.5239 26.6861H78.7545V27.9167H77.5239V26.6861ZM78.7545 29.1473H79.9851V30.3778H78.7545V29.1473ZM78.7545 27.9167H79.9851V29.1473H78.7545V27.9167ZM78.7545 26.6861H79.9851V27.9167H78.7545V26.6861ZM78.7545 25.4555H79.9851V26.6861H78.7545V25.4555ZM78.7545 24.2249H79.9851V25.4555H78.7545V24.2249ZM78.7545 22.9944H79.9851V24.2249H78.7545V22.9944ZM77.5239 22.9944H78.7545V24.2249H77.5239V22.9944ZM77.5239 21.7638H78.7545V22.9944H77.5239V21.7638ZM76.2933 22.9944H77.5239V24.2249H76.2933V22.9944ZM76.2933 24.2249H77.5239V25.4555H76.2933V24.2249ZM76.2933 25.4555H77.5239V26.6861H76.2933V25.4555ZM77.5239 25.4555H78.7545V26.6861H77.5239V25.4555ZM77.5239 24.2249H78.7545V25.4555H77.5239V24.2249ZM76.2933 18.072H77.5239V19.3026H76.2933V18.072ZM77.5239 18.072H78.7545V19.3026H77.5239V18.072ZM78.7545 18.072H79.9851V19.3026H78.7545V18.072ZM78.7545 19.3026H79.9851V20.5332H78.7545V19.3026ZM78.7545 20.5332H79.9851V21.7638H78.7545V20.5332ZM78.7545 21.7638H79.9851V22.9944H78.7545V21.7638ZM77.5239 20.5332H78.7545V21.7638H77.5239V20.5332ZM77.5239 19.3026H78.7545V20.5332H77.5239V19.3026ZM76.2933 21.7638H77.5239V22.9944H76.2933V21.7638ZM76.2933 20.5332H77.5239V21.7638H76.2933V20.5332ZM76.2933 19.3026H77.5239V20.5332H76.2933V19.3026Z" fill="#F0A519"/>
<path d="M82.445 18.072H83.6756V19.3026H82.445V18.072ZM83.6756 18.072H84.9062V19.3026H83.6756V18.072ZM83.6756 19.3026H84.9062V20.5332H83.6756V19.3026ZM84.9062 19.3026H86.1368V20.5332H84.9062V19.3026ZM84.9062 20.5332H86.1368V21.7638H84.9062V20.5332ZM84.9062 18.072H86.1368V19.3026H84.9062V18.072ZM82.445 19.3026H83.6756V20.5332H82.445V19.3026ZM82.445 20.5332H83.6756V21.7638H82.445V20.5332ZM82.445 21.7638H83.6756V22.9944H82.445V21.7638ZM82.445 22.9944H83.6756V24.2249H82.445V22.9944ZM83.6756 22.9944H84.9062V24.2249H83.6756V22.9944ZM83.6756 21.7638H84.9062V22.9944H83.6756V21.7638ZM84.9062 21.7638H86.1368V22.9944H84.9062V21.7638ZM83.6756 20.5332H84.9062V21.7638H83.6756V20.5332ZM84.9062 22.9944H86.1368V24.2249H84.9062V22.9944ZM84.9062 24.2249H86.1368V25.4555H84.9062V24.2249ZM83.6756 24.2249H84.9062V25.4555H83.6756V24.2249ZM83.6756 25.4555H84.9062V26.6861H83.6756V25.4555ZM82.445 24.2249H83.6756V25.4555H82.445V24.2249ZM82.445 25.4555H83.6756V26.6861H82.445V25.4555ZM82.445 26.6861H83.6756V27.9167H82.445V26.6861ZM82.445 27.9167H83.6756V29.1473H82.445V27.9167ZM82.445 29.1473H83.6756V30.3778H82.445V29.1473ZM82.445 30.3778H83.6756V31.6084H82.445V30.3778ZM82.445 31.6084H83.6756V32.839H82.445V31.6084ZM82.445 35.3002H83.6756V36.5308H82.445V35.3002ZM82.445 34.0696H83.6756V35.3002H82.445V34.0696ZM82.445 32.839H83.6756V34.0696H82.445V32.839ZM83.6756 32.839H84.9062V34.0696H83.6756V32.839ZM84.9062 32.839H86.1368V34.0696H84.9062V32.839ZM84.9062 34.0696H86.1368V35.3002H84.9062V34.0696ZM84.9062 35.3002H86.1368V36.5308H84.9062V35.3002ZM83.6756 35.3002H84.9062V36.5308H83.6756V35.3002ZM83.6756 34.0696H84.9062V35.3002H83.6756V34.0696ZM89.8285 31.6084H91.0591V32.839H89.8285V31.6084ZM89.8285 32.839H91.0591V34.0696H89.8285V32.839ZM89.8285 34.0696H91.0591V35.3002H89.8285V34.0696ZM89.8285 35.3002H91.0591V36.5308H89.8285V35.3002ZM91.0591 35.3002H92.2897V36.5308H91.0591V35.3002ZM92.2897 35.3002H93.5203V36.5308H92.2897V35.3002ZM92.2897 34.0696H93.5203V35.3002H92.2897V34.0696ZM92.2897 32.839H93.5203V34.0696H92.2897V32.839ZM91.0591 32.839H92.2897V34.0696H91.0591V32.839ZM91.0591 34.0696H92.2897V35.3002H91.0591V34.0696ZM91.0591 31.6084H92.2897V32.839H91.0591V31.6084ZM92.2897 31.6084H93.5203V32.839H92.2897V31.6084ZM92.2897 30.3778H93.5203V31.6084H92.2897V30.3778ZM92.2897 29.1473H93.5203V30.3778H92.2897V29.1473ZM91.0591 29.1473H92.2897V30.3778H91.0591V29.1473ZM91.0591 30.3778H92.2897V31.6084H91.0591V30.3778ZM89.8285 30.3778H91.0591V31.6084H89.8285V30.3778ZM89.8285 29.1473H91.0591V30.3778H89.8285V29.1473ZM88.5979 29.1473H89.8285V30.3778H88.5979V29.1473ZM89.8285 27.9167H91.0591V29.1473H89.8285V27.9167ZM91.0591 27.9167H92.2897V29.1473H91.0591V27.9167ZM88.5979 27.9167H89.8285V29.1473H88.5979V27.9167ZM87.3674 27.9167H88.5979V29.1473H87.3674V27.9167ZM86.1368 27.9167H87.3674V29.1473H86.1368V27.9167ZM84.9062 31.6084H86.1368V32.839H84.9062V31.6084ZM84.9062 30.3778H86.1368V31.6084H84.9062V30.3778ZM84.9062 29.1473H86.1368V30.3778H84.9062V29.1473ZM84.9062 27.9167H86.1368V29.1473H84.9062V27.9167ZM83.6756 27.9167H84.9062V29.1473H83.6756V27.9167ZM83.6756 29.1473H84.9062V30.3778H83.6756V29.1473ZM83.6756 30.3778H84.9062V31.6084H83.6756V30.3778ZM83.6756 31.6084H84.9062V32.839H83.6756V31.6084ZM83.6756 26.6861H84.9062V27.9167H83.6756V26.6861ZM84.9062 26.6861H86.1368V27.9167H84.9062V26.6861ZM86.1368 26.6861H87.3674V27.9167H86.1368V26.6861ZM87.3674 26.6861H88.5979V27.9167H87.3674V26.6861ZM88.5979 26.6861H89.8285V27.9167H88.5979V26.6861ZM89.8285 26.6861H91.0591V27.9167H89.8285V26.6861ZM88.5979 25.4555H89.8285V26.6861H88.5979V25.4555ZM87.3674 25.4555H88.5979V26.6861H87.3674V25.4555ZM86.1368 25.4555H87.3674V26.6861H86.1368V25.4555ZM84.9062 25.4555H86.1368V26.6861H84.9062V25.4555ZM89.8285 25.4555H91.0591V26.6861H89.8285V25.4555ZM91.0591 25.4555H92.2897V26.6861H91.0591V25.4555ZM89.8285 24.2249H91.0591V25.4555H89.8285V24.2249ZM88.5979 24.2249H89.8285V25.4555H88.5979V24.2249ZM91.0591 24.2249H92.2897V25.4555H91.0591V24.2249ZM92.2897 24.2249H93.5203V25.4555H92.2897V24.2249ZM92.2897 22.9944H93.5203V24.2249H92.2897V22.9944ZM92.2897 21.7638H93.5203V22.9944H92.2897V21.7638ZM92.2897 20.5332H93.5203V21.7638H92.2897V20.5332ZM89.8285 18.072H91.0591V19.3026H89.8285V18.072ZM91.0591 18.072H92.2897V19.3026H91.0591V18.072ZM92.2897 18.072H93.5203V19.3026H92.2897V18.072ZM92.2897 19.3026H93.5203V20.5332H92.2897V19.3026ZM91.0591 19.3026H92.2897V20.5332H91.0591V19.3026ZM89.8285 19.3026H91.0591V20.5332H89.8285V19.3026ZM89.8285 20.5332H91.0591V21.7638H89.8285V20.5332ZM89.8285 21.7638H91.0591V22.9944H89.8285V21.7638ZM89.8285 22.9944H91.0591V24.2249H89.8285V22.9944ZM91.0591 22.9944H92.2897V24.2249H91.0591V22.9944ZM91.0591 21.7638H92.2897V22.9944H91.0591V21.7638ZM91.0591 20.5332H92.2897V21.7638H91.0591V20.5332Z" fill="#F0A519"/>
<path d="M105.82 18.072H107.051V19.3026H105.82V18.072ZM104.59 18.072H105.82V19.3026H104.59V18.072ZM103.359 18.072H104.59V19.3026H103.359V18.072ZM100.898 18.072H102.128V19.3026H100.898V18.072ZM99.6672 18.072H100.898V19.3026H99.6672V18.072ZM98.4366 18.072H99.6672V19.3026H98.4366V18.072ZM102.128 18.072H103.359V19.3026H102.128V18.072ZM102.128 19.3026H103.359V20.5332H102.128V19.3026ZM103.359 19.3026H104.59V20.5332H103.359V19.3026ZM104.59 19.3026H105.82V20.5332H104.59V19.3026ZM105.82 19.3026H107.051V20.5332H105.82V19.3026ZM107.051 19.3026H108.281V20.5332H107.051V19.3026ZM100.898 19.3026H102.128V20.5332H100.898V19.3026ZM99.6672 19.3026H100.898V20.5332H99.6672V19.3026ZM98.4366 19.3026H99.6672V20.5332H98.4366V19.3026ZM97.206 19.3026H98.4366V20.5332H97.206V19.3026ZM95.9754 20.5332H97.206V21.7638H95.9754V20.5332ZM97.206 20.5332H98.4366V21.7638H97.206V20.5332ZM98.4366 20.5332H99.6672V21.7638H98.4366V20.5332ZM99.6672 20.5332H100.898V21.7638H99.6672V20.5332ZM100.898 20.5332H102.128V21.7638H100.898V20.5332ZM102.128 20.5332H103.359V21.7638H102.128V20.5332ZM103.359 20.5332H104.59V21.7638H103.359V20.5332ZM104.59 20.5332H105.82V21.7638H104.59V20.5332ZM105.82 20.5332H107.051V21.7638H105.82V20.5332ZM107.051 20.5332H108.281V21.7638H107.051V20.5332ZM108.281 20.5332H109.512V21.7638H108.281V20.5332ZM108.281 21.7638H109.512V22.9944H108.281V21.7638ZM108.281 22.9944H109.512V24.2249H108.281V22.9944ZM107.051 22.9944H108.281V24.2249H107.051V22.9944ZM107.051 21.7638H108.281V22.9944H107.051V21.7638ZM105.82 22.9944H107.051V24.2249H105.82V22.9944ZM105.82 21.7638H107.051V22.9944H105.82V21.7638ZM104.59 21.7638H105.82V22.9944H104.59V21.7638ZM99.6672 21.7638H100.898V22.9944H99.6672V21.7638ZM98.4366 21.7638H99.6672V22.9944H98.4366V21.7638ZM97.206 21.7638H98.4366V22.9944H97.206V21.7638ZM95.9754 21.7638H97.206V22.9944H95.9754V21.7638ZM95.9754 22.9944H97.206V24.2249H95.9754V22.9944ZM97.206 22.9944H98.4366V24.2249H97.206V22.9944ZM97.206 24.2249H98.4366V25.4555H97.206V24.2249ZM98.4366 22.9944H99.6672V24.2249H98.4366V22.9944ZM98.4366 24.2249H99.6672V25.4555H98.4366V24.2249ZM99.6672 24.2249H100.898V25.4555H99.6672V24.2249ZM95.9754 24.2249H97.206V25.4555H95.9754V24.2249ZM95.9754 25.4555H97.206V26.6861H95.9754V25.4555ZM97.206 25.4555H98.4366V26.6861H97.206V25.4555ZM97.206 26.6861H98.4366V27.9167H97.206V26.6861ZM98.4366 26.6861H99.6672V27.9167H98.4366V26.6861ZM98.4366 25.4555H99.6672V26.6861H98.4366V25.4555ZM99.6672 25.4555H100.898V26.6861H99.6672V25.4555ZM99.6672 26.6861H100.898V27.9167H99.6672V26.6861ZM98.4366 27.9167H99.6672V29.1473H98.4366V27.9167ZM99.6672 27.9167H100.898V29.1473H99.6672V27.9167ZM100.898 27.9167H102.128V29.1473H100.898V27.9167ZM102.128 27.9167H103.359V29.1473H102.128V27.9167ZM103.359 27.9167H104.59V29.1473H103.359V27.9167ZM103.359 26.6861H104.59V27.9167H103.359V26.6861ZM104.59 26.6861H105.82V27.9167H104.59V26.6861ZM105.82 26.6861H107.051V27.9167H105.82V26.6861ZM105.82 25.4555H107.051V26.6861H105.82V25.4555ZM104.59 25.4555H105.82V26.6861H104.59V25.4555ZM103.359 25.4555H104.59V26.6861H103.359V25.4555ZM102.128 25.4555H103.359V26.6861H102.128V25.4555ZM102.128 26.6861H103.359V27.9167H102.128V26.6861ZM100.898 26.6861H102.128V27.9167H100.898V26.6861ZM100.898 25.4555H102.128V26.6861H100.898V25.4555ZM107.051 26.6861H108.281V27.9167H107.051V26.6861ZM107.051 27.9167H108.281V29.1473H107.051V27.9167ZM105.82 27.9167H107.051V29.1473H105.82V27.9167ZM105.82 29.1473H107.051V30.3778H105.82V29.1473ZM104.59 29.1473H105.82V30.3778H104.59V29.1473ZM104.59 27.9167H105.82V29.1473H104.59V27.9167ZM107.051 29.1473H108.281V30.3778H107.051V29.1473ZM108.281 29.1473H109.512V30.3778H108.281V29.1473ZM108.281 27.9167H109.512V29.1473H108.281V27.9167ZM108.281 30.3778H109.512V31.6084H108.281V30.3778ZM108.281 31.6084H109.512V32.839H108.281V31.6084ZM108.281 32.839H109.512V34.0696H108.281V32.839ZM107.051 32.839H108.281V34.0696H107.051V32.839ZM107.051 34.0696H108.281V35.3002H107.051V34.0696ZM105.82 34.0696H107.051V35.3002H105.82V34.0696ZM105.82 32.839H107.051V34.0696H105.82V32.839ZM104.59 32.839H105.82V34.0696H104.59V32.839ZM104.59 31.6084H105.82V32.839H104.59V31.6084ZM105.82 31.6084H107.051V32.839H105.82V31.6084ZM105.82 30.3778H107.051V31.6084H105.82V30.3778ZM107.051 30.3778H108.281V31.6084H107.051V30.3778ZM107.051 31.6084H108.281V32.839H107.051V31.6084ZM95.9754 30.3778H97.206V31.6084H95.9754V30.3778ZM95.9754 31.6084H97.206V32.839H95.9754V31.6084ZM97.206 31.6084H98.4366V32.839H97.206V31.6084ZM97.206 30.3778H98.4366V31.6084H97.206V30.3778ZM98.4366 30.3778H99.6672V31.6084H98.4366V30.3778ZM98.4366 31.6084H99.6672V32.839H98.4366V31.6084ZM95.9754 32.839H97.206V34.0696H95.9754V32.839ZM97.206 32.839H98.4366V34.0696H97.206V32.839ZM99.6672 31.6084H100.898V32.839H99.6672V31.6084ZM99.6672 32.839H100.898V34.0696H99.6672V32.839ZM98.4366 32.839H99.6672V34.0696H98.4366V32.839ZM98.4366 34.0696H99.6672V35.3002H98.4366V34.0696ZM97.206 34.0696H98.4366V35.3002H97.206V34.0696ZM98.4366 35.3002H99.6672V36.5308H98.4366V35.3002ZM99.6672 35.3002H100.898V36.5308H99.6672V35.3002ZM100.898 35.3002H102.128V36.5308H100.898V35.3002ZM102.128 35.3002H103.359V36.5308H102.128V35.3002ZM103.359 35.3002H104.59V36.5308H103.359V35.3002ZM104.59 35.3002H105.82V36.5308H104.59V35.3002ZM105.82 35.3002H107.051V36.5308H105.82V35.3002ZM104.59 34.0696H105.82V35.3002H104.59V34.0696ZM103.359 34.0696H104.59V35.3002H103.359V34.0696ZM102.128 34.0696H103.359V35.3002H102.128V34.0696ZM102.128 32.839H103.359V34.0696H102.128V32.839ZM100.898 32.839H102.128V34.0696H100.898V32.839ZM103.359 32.839H104.59V34.0696H103.359V32.839ZM100.898 34.0696H102.128V35.3002H100.898V34.0696ZM99.6672 34.0696H100.898V35.3002H99.6672V34.0696Z" fill="#F0A519"/>
<defs>
<linearGradient id="paint0_linear_245_442" x1="5.56438" y1="28.8517" x2="5.56438" y2="38.4688" gradientUnits="userSpaceOnUse">
<stop stop-color="#717171"/>
<stop offset="1" stop-color="#494949"/>
</linearGradient>
<linearGradient id="paint1_linear_245_442" x1="18.3866" y1="28.8517" x2="18.3866" y2="38.4688" gradientUnits="userSpaceOnUse">
<stop stop-color="#717171"/>
<stop offset="1" stop-color="#494949"/>
</linearGradient>
<linearGradient id="paint2_linear_245_442" x1="31.2089" y1="28.8517" x2="31.2089" y2="38.4688" gradientUnits="userSpaceOnUse">
<stop stop-color="#717171"/>
<stop offset="1" stop-color="#494949"/>
</linearGradient>
<linearGradient id="paint3_linear_245_442" x1="5.56438" y1="16.0293" x2="5.56438" y2="25.6459" gradientUnits="userSpaceOnUse">
<stop stop-color="#717171"/>
<stop offset="1" stop-color="#494949"/>
</linearGradient>
<linearGradient id="paint4_linear_245_442" x1="18.3866" y1="16.0293" x2="18.3866" y2="25.6459" gradientUnits="userSpaceOnUse">
<stop stop-color="#717171"/>
<stop offset="1" stop-color="#494949"/>
</linearGradient>
<linearGradient id="paint5_linear_245_442" x1="32.8125" y1="15.0465" x2="32.8125" y2="26.6279" gradientUnits="userSpaceOnUse">
<stop stop-color="#6DB13D"/>
<stop offset="1" stop-color="#83E83D"/>
</linearGradient>
<linearGradient id="paint6_linear_245_442" x1="5.56438" y1="3.20691" x2="5.56438" y2="12.8235" gradientUnits="userSpaceOnUse">
<stop stop-color="#717171"/>
<stop offset="1" stop-color="#494949"/>
</linearGradient>
<linearGradient id="paint7_linear_245_442" x1="18.3863" y1="2.22464" x2="18.3863" y2="13.806" gradientUnits="userSpaceOnUse">
<stop stop-color="#6DB13D"/>
<stop offset="1" stop-color="#83E83D"/>
</linearGradient>
</defs>
</svg>
