<svg width="115" height="40" viewBox="0 0 115 40" fill="none" xmlns="http://www.w3.org/2000/svg">
<path d="M44.2383 2.9234L48.0652 16.0569L49.2611 17.7284V27.9277V39.9489H77.8979H102.662H109.874V24.3213H113V17.1085H85.5915C86.5532 17.1085 89.9191 14.0984 89.9191 9.89574C89.9191 5.69304 86.7724 2.9234 85.5915 2.9234H44.2383Z" fill="white"/>
<path d="M49.3342 14.4638L46.5325 4.67195H48.794L50.4148 11.4756H50.4961L52.2842 4.67195H54.2206L56.004 11.4899H56.0901L57.7109 4.67195H59.9724L57.1706 14.4638H55.153L53.2883 8.06182H53.2118L51.3519 14.4638H49.3342Z" fill="#2D2D2D"/>
<path d="M69.5264 9.56789C69.5264 10.6357 69.324 11.5441 68.9192 12.2932C68.5176 13.0422 67.9693 13.6144 67.2745 14.0096C66.5828 14.4017 65.805 14.5977 64.9412 14.5977C64.0711 14.5977 63.2901 14.4001 62.5985 14.0048C61.9068 13.6096 61.3601 13.0374 60.9585 12.2884C60.5569 11.5393 60.3561 10.6325 60.3561 9.56789C60.3561 8.50009 60.5569 7.59167 60.9585 6.84261C61.3601 6.09356 61.9068 5.523 62.5985 5.13095C63.2901 4.7357 64.0711 4.53808 64.9412 4.53808C65.805 4.53808 66.5828 4.7357 67.2745 5.13095C67.9693 5.523 68.5176 6.09356 68.9192 6.84261C69.324 7.59167 69.5264 8.50009 69.5264 9.56789ZM67.4275 9.56789C67.4275 8.87621 67.3239 8.29291 67.1167 7.81797C66.9127 7.34304 66.6242 6.98286 66.2513 6.73743C65.8784 6.49199 65.4417 6.36927 64.9412 6.36927C64.4408 6.36927 64.0041 6.49199 63.6312 6.73743C63.2583 6.98286 62.9682 7.34304 62.761 7.81797C62.557 8.29291 62.455 8.87621 62.455 9.56789C62.455 10.2596 62.557 10.8429 62.761 11.3178C62.9682 11.7927 63.2583 12.1529 63.6312 12.3984C64.0041 12.6438 64.4408 12.7665 64.9412 12.7665C65.4417 12.7665 65.8784 12.6438 66.2513 12.3984C66.6242 12.1529 66.9127 11.7927 67.1167 11.3178C67.3239 10.8429 67.4275 10.2596 67.4275 9.56789Z" fill="#2D2D2D"/>
<path d="M71.06 14.4638V4.67195H74.9232C75.6627 4.67195 76.2938 4.80423 76.8165 5.06879C77.3425 5.33016 77.7425 5.7015 78.0166 6.18281C78.2939 6.66093 78.4326 7.22351 78.4326 7.87057C78.4326 8.52081 78.2923 9.08021 78.0118 9.54877C77.7313 10.0141 77.3249 10.3711 76.7926 10.6198C76.2635 10.8684 75.6228 10.9927 74.8706 10.9927H72.284V9.32883H74.5359C74.9311 9.32883 75.2595 9.27464 75.5208 9.16627C75.7822 9.0579 75.9766 8.89534 76.1041 8.67859C76.2348 8.46184 76.3002 8.1925 76.3002 7.87057C76.3002 7.54545 76.2348 7.27133 76.1041 7.0482C75.9766 6.82508 75.7806 6.65615 75.516 6.5414C75.2547 6.42346 74.9248 6.36449 74.5263 6.36449H73.1302V14.4638H71.06ZM76.348 10.0078L78.7816 14.4638H76.4962L74.1152 10.0078H76.348Z" fill="#2D2D2D"/>
<path d="M83.3668 14.4638H79.8956V4.67195H83.3954C84.3804 4.67195 85.2282 4.86798 85.939 5.26004C86.6498 5.64891 87.1965 6.20831 87.579 6.93824C87.9647 7.66816 88.1575 8.54153 88.1575 9.55833C88.1575 10.5783 87.9647 11.4549 87.579 12.188C87.1965 12.9211 86.6466 13.4837 85.9295 13.8757C85.2155 14.2678 84.3612 14.4638 83.3668 14.4638ZM81.9659 12.69H83.2807C83.8927 12.69 84.4075 12.5816 84.825 12.3649C85.2458 12.145 85.5613 11.8055 85.7717 11.3465C85.9853 10.8843 86.092 10.2883 86.092 9.55833C86.092 8.83477 85.9853 8.2435 85.7717 7.78451C85.5613 7.32551 85.2474 6.98764 84.8298 6.77089C84.4122 6.55415 83.8975 6.44577 83.2855 6.44577H81.9659V12.69Z" fill="#2D2D2D"/>
<mask id="path-3-outside-1_23_451" maskUnits="userSpaceOnUse" x="42.2587" y="14.9221" width="73" height="26" fill="black">
<rect fill="white" x="42.2587" y="14.9221" width="73" height="26"/>
<path d="M49.7909 18.9221H51.557V20.6882H49.7909V18.9221ZM48.0248 18.9221H49.7909V20.6882H48.0248V18.9221ZM48.0248 20.6882H49.7909V22.4543H48.0248V20.6882ZM49.7909 20.6882H51.557V22.4543H49.7909V20.6882ZM51.557 20.6882H53.3231V22.4543H51.557V20.6882ZM51.557 18.9221H53.3231V20.6882H51.557V18.9221ZM53.3231 18.9221H55.0892V20.6882H53.3231V18.9221ZM55.0892 18.9221H56.8553V20.6882H55.0892V18.9221ZM55.0892 20.6882H56.8553V22.4543H55.0892V20.6882ZM53.3231 20.6882H55.0892V22.4543H53.3231V20.6882ZM55.0892 22.4543H56.8553V24.2204H55.0892V22.4543ZM56.8553 20.6882H58.6213V22.4543H56.8553V20.6882ZM56.8553 22.4543H58.6213V24.2204H56.8553V22.4543ZM56.8553 31.2847H58.6213V33.0508H56.8553V31.2847ZM56.8553 33.0508H58.6213V34.8169H56.8553V33.0508ZM55.0892 33.0508H56.8553V34.8169H55.0892V33.0508ZM55.0892 31.2847H56.8553V33.0508H55.0892V31.2847ZM53.3231 33.0508H55.0892V34.8169H53.3231V33.0508ZM55.0892 34.8169H56.8553V36.583H55.0892V34.8169ZM53.3231 34.8169H55.0892V36.583H53.3231V34.8169ZM51.557 34.8169H53.3231V36.583H51.557V34.8169ZM51.557 33.0508H53.3231V34.8169H51.557V33.0508ZM49.7909 34.8169H51.557V36.583H49.7909V34.8169ZM48.0248 34.8169H49.7909V36.583H48.0248V34.8169ZM48.0248 33.0508H49.7909V34.8169H48.0248V33.0508ZM49.7909 33.0508H51.557V34.8169H49.7909V33.0508ZM49.7909 31.2847H51.557V33.0508H49.7909V31.2847ZM48.0248 31.2847H49.7909V33.0508H48.0248V31.2847ZM46.2587 33.0508H48.0248V34.8169H46.2587V33.0508ZM46.2587 31.2847H48.0248V33.0508H46.2587V31.2847ZM46.2587 29.5186H48.0248V31.2847H46.2587V29.5186ZM46.2587 27.7525H48.0248V29.5186H46.2587V27.7525ZM46.2587 25.9865H48.0248V27.7525H46.2587V25.9865ZM46.2587 24.2204H48.0248V25.9865H46.2587V24.2204ZM46.2587 22.4543H48.0248V24.2204H46.2587V22.4543ZM48.0248 22.4543H49.7909V24.2204H48.0248V22.4543ZM46.2587 20.6882H48.0248V22.4543H46.2587V20.6882ZM49.7909 22.4543H51.557V24.2204H49.7909V22.4543ZM48.0248 24.2204H49.7909V25.9865H48.0248V24.2204ZM48.0248 25.9865H49.7909V27.7525H48.0248V25.9865ZM48.0248 27.7525H49.7909V29.5186H48.0248V27.7525ZM48.0248 29.5186H49.7909V31.2847H48.0248V29.5186Z"/>
<path d="M62.1581 27.7525H63.9242V29.5186H62.1581V27.7525ZM63.9242 27.7525H65.6903V29.5186H63.9242V27.7525ZM65.6903 27.7525H67.4564V29.5186H65.6903V27.7525ZM67.4564 27.7525H69.2225V29.5186H67.4564V27.7525ZM63.9242 29.5186H65.6903V31.2847H63.9242V29.5186ZM62.1581 29.5186H63.9242V31.2847H62.1581V29.5186ZM65.6903 29.5186H67.4564V31.2847H65.6903V29.5186ZM67.4564 29.5186H69.2225V31.2847H67.4564V29.5186ZM69.2225 31.2847H70.9886V33.0508H69.2225V31.2847ZM70.9886 29.5186H72.7547V31.2847H70.9886V29.5186ZM69.2225 29.5186H70.9886V31.2847H69.2225V29.5186ZM70.9886 31.2847H72.7547V33.0508H70.9886V31.2847ZM69.2225 33.0508H70.9886V34.8169H69.2225V33.0508ZM70.9886 33.0508H72.7547V34.8169H70.9886V33.0508ZM70.9886 34.8169H72.7547V36.583H70.9886V34.8169ZM69.2225 34.8169H70.9886V36.583H69.2225V34.8169ZM62.1581 34.8169H63.9242V36.583H62.1581V34.8169ZM60.392 34.8169H62.1581V36.583H60.392V34.8169ZM60.392 33.0508H62.1581V34.8169H60.392V33.0508ZM62.1581 33.0508H63.9242V34.8169H62.1581V33.0508ZM62.1581 31.2847H63.9242V33.0508H62.1581V31.2847ZM60.392 31.2847H62.1581V33.0508H60.392V31.2847ZM60.392 29.5186H62.1581V31.2847H60.392V29.5186ZM60.392 27.7525H62.1581V29.5186H60.392V27.7525ZM60.392 25.9865H62.1581V27.7525H60.392V25.9865ZM62.1581 25.9865H63.9242V27.7525H62.1581V25.9865ZM60.392 18.9221H62.1581V20.6882H60.392V18.9221ZM62.1581 18.9221H63.9242V20.6882H62.1581V18.9221ZM63.9242 18.9221H65.6903V20.6882H63.9242V18.9221ZM65.6903 18.9221H67.4564V20.6882H65.6903V18.9221ZM67.4564 18.9221H69.2225V20.6882H67.4564V18.9221ZM69.2225 18.9221H70.9886V20.6882H69.2225V18.9221ZM69.2225 20.6882H70.9886V22.4543H69.2225V20.6882ZM67.4564 20.6882H69.2225V22.4543H67.4564V20.6882ZM65.6903 20.6882H67.4564V22.4543H65.6903V20.6882ZM63.9242 20.6882H65.6903V22.4543H63.9242V20.6882ZM62.1581 20.6882H63.9242V22.4543H62.1581V20.6882ZM60.392 20.6882H62.1581V22.4543H60.392V20.6882ZM60.392 22.4543H62.1581V24.2204H60.392V22.4543ZM60.392 24.2204H62.1581V25.9865H60.392V24.2204ZM62.1581 24.2204H63.9242V25.9865H62.1581V24.2204ZM62.1581 22.4543H63.9242V24.2204H62.1581V22.4543ZM69.2225 22.4543H70.9886V24.2204H69.2225V22.4543ZM70.9886 22.4543H72.7547V24.2204H70.9886V22.4543ZM70.9886 20.6882H72.7547V22.4543H70.9886V20.6882ZM70.9886 24.2204H72.7547V25.9865H70.9886V24.2204ZM69.2225 24.2204H70.9886V25.9865H69.2225V24.2204ZM69.2225 25.9865H70.9886V27.7525H69.2225V25.9865ZM70.9886 25.9865H72.7547V27.7525H70.9886V25.9865ZM69.2225 27.7525H70.9886V29.5186H69.2225V27.7525Z"/>
<path d="M78.0575 20.6882H79.8236V22.4543H78.0575V20.6882ZM79.8236 20.6882H81.5897V22.4543H79.8236V20.6882ZM79.8236 18.9221H81.5897V20.6882H79.8236V18.9221ZM81.5897 20.6882H83.3558V22.4543H81.5897V20.6882ZM81.5897 22.4543H83.3558V24.2204H81.5897V22.4543ZM83.3558 22.4543H85.1219V24.2204H83.3558V22.4543ZM79.8236 22.4543H81.5897V24.2204H79.8236V22.4543ZM78.0575 22.4543H79.8236V24.2204H78.0575V22.4543ZM76.2914 22.4543H78.0575V24.2204H76.2914V22.4543ZM76.2914 24.2204H78.0575V25.9865H76.2914V24.2204ZM74.5253 24.2204H76.2914V25.9865H74.5253V24.2204ZM78.0575 24.2204H79.8236V25.9865H78.0575V24.2204ZM76.2914 25.9865H78.0575V27.7525H76.2914V25.9865ZM76.2914 27.7525H78.0575V29.5186H76.2914V27.7525ZM76.2914 29.5186H78.0575V31.2847H76.2914V29.5186ZM78.0575 29.5186H79.8236V31.2847H78.0575V29.5186ZM79.8236 29.5186H81.5897V31.2847H79.8236V29.5186ZM81.5897 29.5186H83.3558V31.2847H81.5897V29.5186ZM83.3558 29.5186H85.1219V31.2847H83.3558V29.5186ZM85.1219 29.5186H86.888V31.2847H85.1219V29.5186ZM85.1219 27.7525H86.888V29.5186H85.1219V27.7525ZM85.1219 25.9865H86.888V27.7525H85.1219V25.9865ZM85.1219 24.2204H86.888V25.9865H85.1219V24.2204ZM83.3558 24.2204H85.1219V25.9865H83.3558V24.2204ZM81.5897 24.2204H83.3558V25.9865H81.5897V24.2204ZM83.3558 25.9865H85.1219V27.7525H83.3558V25.9865ZM83.3558 27.7525H85.1219V29.5186H83.3558V27.7525ZM83.3558 31.2847H85.1219V33.0508H83.3558V31.2847ZM85.1219 31.2847H86.888V33.0508H85.1219V31.2847ZM85.1219 33.0508H86.888V34.8169H85.1219V33.0508ZM85.1219 34.8169H86.888V36.583H85.1219V34.8169ZM83.3558 34.8169H85.1219V36.583H83.3558V34.8169ZM83.3558 33.0508H85.1219V34.8169H83.3558V33.0508ZM81.5897 31.2847H83.3558V33.0508H81.5897V31.2847ZM79.8236 31.2847H81.5897V33.0508H79.8236V31.2847ZM78.0575 31.2847H79.8236V33.0508H78.0575V31.2847ZM76.2914 31.2847H78.0575V33.0508H76.2914V31.2847ZM76.2914 33.0508H78.0575V34.8169H76.2914V33.0508ZM76.2914 34.8169H78.0575V36.583H76.2914V34.8169ZM74.5253 34.8169H76.2914V36.583H74.5253V34.8169ZM74.5253 33.0508H76.2914V34.8169H74.5253V33.0508ZM74.5253 31.2847H76.2914V33.0508H74.5253V31.2847ZM74.5253 29.5186H76.2914V31.2847H74.5253V29.5186ZM74.5253 27.7525H76.2914V29.5186H74.5253V27.7525ZM74.5253 25.9865H76.2914V27.7525H74.5253V25.9865Z"/>
<path d="M88.6586 18.9221H90.4247V20.6882H88.6586V18.9221ZM90.4247 18.9221H92.1908V20.6882H90.4247V18.9221ZM90.4247 20.6882H92.1908V22.4543H90.4247V20.6882ZM90.4247 22.4543H92.1908V24.2204H90.4247V22.4543ZM90.4247 24.2204H92.1908V25.9865H90.4247V24.2204ZM88.6586 24.2204H90.4247V25.9865H88.6586V24.2204ZM88.6586 22.4543H90.4247V24.2204H88.6586V22.4543ZM88.6586 20.6882H90.4247V22.4543H88.6586V20.6882ZM88.6586 25.9865H90.4247V27.7525H88.6586V25.9865ZM88.6586 27.7525H90.4247V29.5186H88.6586V27.7525ZM88.6586 29.5186H90.4247V31.2847H88.6586V29.5186ZM90.4247 27.7525H92.1908V29.5186H90.4247V27.7525ZM90.4247 25.9865H92.1908V27.7525H90.4247V25.9865ZM90.4247 29.5186H92.1908V31.2847H90.4247V29.5186ZM90.4247 31.2847H92.1908V33.0508H90.4247V31.2847ZM88.6586 33.0508H90.4247V34.8169H88.6586V33.0508ZM88.6586 31.2847H90.4247V33.0508H88.6586V31.2847ZM88.6586 34.8169H90.4247V36.583H88.6586V34.8169ZM90.4247 34.8169H92.1908V36.583H90.4247V34.8169ZM90.4247 33.0508H92.1908V34.8169H90.4247V33.0508ZM92.1908 18.9221H93.9569V20.6882H92.1908V18.9221ZM93.9569 18.9221H95.723V20.6882H93.9569V18.9221ZM95.723 18.9221H97.4891V20.6882H95.723V18.9221ZM97.4891 18.9221H99.2552V20.6882H97.4891V18.9221ZM95.723 20.6882H97.4891V22.4543H95.723V20.6882ZM93.9569 20.6882H95.723V22.4543H93.9569V20.6882ZM92.1908 20.6882H93.9569V22.4543H92.1908V20.6882ZM92.1908 27.7525H93.9569V29.5186H92.1908V27.7525ZM93.9569 25.9865H95.723V27.7525H93.9569V25.9865ZM92.1908 25.9865H93.9569V27.7525H92.1908V25.9865ZM93.9569 27.7525H95.723V29.5186H93.9569V27.7525ZM97.4891 20.6882H99.2552V22.4543H97.4891V20.6882ZM95.723 25.9865H97.4891V27.7525H95.723V25.9865ZM95.723 27.7525H97.4891V29.5186H95.723V27.7525Z"/>
<path d="M101.021 18.9221H102.787V20.6882H101.021V18.9221ZM102.787 18.9221H104.553V20.6882H102.787V18.9221ZM104.553 18.9221H106.32V20.6882H104.553V18.9221ZM106.32 18.9221H108.086V20.6882H106.32V18.9221ZM108.086 18.9221H109.852V20.6882H108.086V18.9221ZM109.852 18.9221H111.618V20.6882H109.852V18.9221ZM109.852 20.6882H111.618V22.4543H109.852V20.6882ZM108.086 20.6882H109.852V22.4543H108.086V20.6882ZM106.32 20.6882H108.086V22.4543H106.32V20.6882ZM104.553 20.6882H106.32V22.4543H104.553V20.6882ZM102.787 20.6882H104.553V22.4543H102.787V20.6882ZM101.021 20.6882H102.787V22.4543H101.021V20.6882ZM104.553 22.4543H106.32V24.2204H104.553V22.4543ZM104.553 24.2204H106.32V25.9865H104.553V24.2204ZM104.553 25.9865H106.32V27.7525H104.553V25.9865ZM104.553 27.7525H106.32V29.5186H104.553V27.7525ZM104.553 29.5186H106.32V31.2847H104.553V29.5186ZM104.553 31.2847H106.32V33.0508H104.553V31.2847ZM106.32 29.5186H108.086V31.2847H106.32V29.5186ZM106.32 27.7525H108.086V29.5186H106.32V27.7525ZM106.32 25.9865H108.086V27.7525H106.32V25.9865ZM106.32 24.2204H108.086V25.9865H106.32V24.2204ZM106.32 22.4543H108.086V24.2204H106.32V22.4543ZM106.32 31.2847H108.086V33.0508H106.32V31.2847ZM106.32 33.0508H108.086V34.8169H106.32V33.0508ZM106.32 34.8169H108.086V36.583H106.32V34.8169ZM104.553 34.8169H106.32V36.583H104.553V34.8169ZM104.553 33.0508H106.32V34.8169H104.553V33.0508Z"/>
</mask>
<path d="M49.7909 18.9221H51.557V20.6882H49.7909V18.9221ZM48.0248 18.9221H49.7909V20.6882H48.0248V18.9221ZM48.0248 20.6882H49.7909V22.4543H48.0248V20.6882ZM49.7909 20.6882H51.557V22.4543H49.7909V20.6882ZM51.557 20.6882H53.3231V22.4543H51.557V20.6882ZM51.557 18.9221H53.3231V20.6882H51.557V18.9221ZM53.3231 18.9221H55.0892V20.6882H53.3231V18.9221ZM55.0892 18.9221H56.8553V20.6882H55.0892V18.9221ZM55.0892 20.6882H56.8553V22.4543H55.0892V20.6882ZM53.3231 20.6882H55.0892V22.4543H53.3231V20.6882ZM55.0892 22.4543H56.8553V24.2204H55.0892V22.4543ZM56.8553 20.6882H58.6213V22.4543H56.8553V20.6882ZM56.8553 22.4543H58.6213V24.2204H56.8553V22.4543ZM56.8553 31.2847H58.6213V33.0508H56.8553V31.2847ZM56.8553 33.0508H58.6213V34.8169H56.8553V33.0508ZM55.0892 33.0508H56.8553V34.8169H55.0892V33.0508ZM55.0892 31.2847H56.8553V33.0508H55.0892V31.2847ZM53.3231 33.0508H55.0892V34.8169H53.3231V33.0508ZM55.0892 34.8169H56.8553V36.583H55.0892V34.8169ZM53.3231 34.8169H55.0892V36.583H53.3231V34.8169ZM51.557 34.8169H53.3231V36.583H51.557V34.8169ZM51.557 33.0508H53.3231V34.8169H51.557V33.0508ZM49.7909 34.8169H51.557V36.583H49.7909V34.8169ZM48.0248 34.8169H49.7909V36.583H48.0248V34.8169ZM48.0248 33.0508H49.7909V34.8169H48.0248V33.0508ZM49.7909 33.0508H51.557V34.8169H49.7909V33.0508ZM49.7909 31.2847H51.557V33.0508H49.7909V31.2847ZM48.0248 31.2847H49.7909V33.0508H48.0248V31.2847ZM46.2587 33.0508H48.0248V34.8169H46.2587V33.0508ZM46.2587 31.2847H48.0248V33.0508H46.2587V31.2847ZM46.2587 29.5186H48.0248V31.2847H46.2587V29.5186ZM46.2587 27.7525H48.0248V29.5186H46.2587V27.7525ZM46.2587 25.9865H48.0248V27.7525H46.2587V25.9865ZM46.2587 24.2204H48.0248V25.9865H46.2587V24.2204ZM46.2587 22.4543H48.0248V24.2204H46.2587V22.4543ZM48.0248 22.4543H49.7909V24.2204H48.0248V22.4543ZM46.2587 20.6882H48.0248V22.4543H46.2587V20.6882ZM49.7909 22.4543H51.557V24.2204H49.7909V22.4543ZM48.0248 24.2204H49.7909V25.9865H48.0248V24.2204ZM48.0248 25.9865H49.7909V27.7525H48.0248V25.9865ZM48.0248 27.7525H49.7909V29.5186H48.0248V27.7525ZM48.0248 29.5186H49.7909V31.2847H48.0248V29.5186Z" fill="#F0A519"/>
<path d="M62.1581 27.7525H63.9242V29.5186H62.1581V27.7525ZM63.9242 27.7525H65.6903V29.5186H63.9242V27.7525ZM65.6903 27.7525H67.4564V29.5186H65.6903V27.7525ZM67.4564 27.7525H69.2225V29.5186H67.4564V27.7525ZM63.9242 29.5186H65.6903V31.2847H63.9242V29.5186ZM62.1581 29.5186H63.9242V31.2847H62.1581V29.5186ZM65.6903 29.5186H67.4564V31.2847H65.6903V29.5186ZM67.4564 29.5186H69.2225V31.2847H67.4564V29.5186ZM69.2225 31.2847H70.9886V33.0508H69.2225V31.2847ZM70.9886 29.5186H72.7547V31.2847H70.9886V29.5186ZM69.2225 29.5186H70.9886V31.2847H69.2225V29.5186ZM70.9886 31.2847H72.7547V33.0508H70.9886V31.2847ZM69.2225 33.0508H70.9886V34.8169H69.2225V33.0508ZM70.9886 33.0508H72.7547V34.8169H70.9886V33.0508ZM70.9886 34.8169H72.7547V36.583H70.9886V34.8169ZM69.2225 34.8169H70.9886V36.583H69.2225V34.8169ZM62.1581 34.8169H63.9242V36.583H62.1581V34.8169ZM60.392 34.8169H62.1581V36.583H60.392V34.8169ZM60.392 33.0508H62.1581V34.8169H60.392V33.0508ZM62.1581 33.0508H63.9242V34.8169H62.1581V33.0508ZM62.1581 31.2847H63.9242V33.0508H62.1581V31.2847ZM60.392 31.2847H62.1581V33.0508H60.392V31.2847ZM60.392 29.5186H62.1581V31.2847H60.392V29.5186ZM60.392 27.7525H62.1581V29.5186H60.392V27.7525ZM60.392 25.9865H62.1581V27.7525H60.392V25.9865ZM62.1581 25.9865H63.9242V27.7525H62.1581V25.9865ZM60.392 18.9221H62.1581V20.6882H60.392V18.9221ZM62.1581 18.9221H63.9242V20.6882H62.1581V18.9221ZM63.9242 18.9221H65.6903V20.6882H63.9242V18.9221ZM65.6903 18.9221H67.4564V20.6882H65.6903V18.9221ZM67.4564 18.9221H69.2225V20.6882H67.4564V18.9221ZM69.2225 18.9221H70.9886V20.6882H69.2225V18.9221ZM69.2225 20.6882H70.9886V22.4543H69.2225V20.6882ZM67.4564 20.6882H69.2225V22.4543H67.4564V20.6882ZM65.6903 20.6882H67.4564V22.4543H65.6903V20.6882ZM63.9242 20.6882H65.6903V22.4543H63.9242V20.6882ZM62.1581 20.6882H63.9242V22.4543H62.1581V20.6882ZM60.392 20.6882H62.1581V22.4543H60.392V20.6882ZM60.392 22.4543H62.1581V24.2204H60.392V22.4543ZM60.392 24.2204H62.1581V25.9865H60.392V24.2204ZM62.1581 24.2204H63.9242V25.9865H62.1581V24.2204ZM62.1581 22.4543H63.9242V24.2204H62.1581V22.4543ZM69.2225 22.4543H70.9886V24.2204H69.2225V22.4543ZM70.9886 22.4543H72.7547V24.2204H70.9886V22.4543ZM70.9886 20.6882H72.7547V22.4543H70.9886V20.6882ZM70.9886 24.2204H72.7547V25.9865H70.9886V24.2204ZM69.2225 24.2204H70.9886V25.9865H69.2225V24.2204ZM69.2225 25.9865H70.9886V27.7525H69.2225V25.9865ZM70.9886 25.9865H72.7547V27.7525H70.9886V25.9865ZM69.2225 27.7525H70.9886V29.5186H69.2225V27.7525Z" fill="#F0A519"/>
<path d="M78.0575 20.6882H79.8236V22.4543H78.0575V20.6882ZM79.8236 20.6882H81.5897V22.4543H79.8236V20.6882ZM79.8236 18.9221H81.5897V20.6882H79.8236V18.9221ZM81.5897 20.6882H83.3558V22.4543H81.5897V20.6882ZM81.5897 22.4543H83.3558V24.2204H81.5897V22.4543ZM83.3558 22.4543H85.1219V24.2204H83.3558V22.4543ZM79.8236 22.4543H81.5897V24.2204H79.8236V22.4543ZM78.0575 22.4543H79.8236V24.2204H78.0575V22.4543ZM76.2914 22.4543H78.0575V24.2204H76.2914V22.4543ZM76.2914 24.2204H78.0575V25.9865H76.2914V24.2204ZM74.5253 24.2204H76.2914V25.9865H74.5253V24.2204ZM78.0575 24.2204H79.8236V25.9865H78.0575V24.2204ZM76.2914 25.9865H78.0575V27.7525H76.2914V25.9865ZM76.2914 27.7525H78.0575V29.5186H76.2914V27.7525ZM76.2914 29.5186H78.0575V31.2847H76.2914V29.5186ZM78.0575 29.5186H79.8236V31.2847H78.0575V29.5186ZM79.8236 29.5186H81.5897V31.2847H79.8236V29.5186ZM81.5897 29.5186H83.3558V31.2847H81.5897V29.5186ZM83.3558 29.5186H85.1219V31.2847H83.3558V29.5186ZM85.1219 29.5186H86.888V31.2847H85.1219V29.5186ZM85.1219 27.7525H86.888V29.5186H85.1219V27.7525ZM85.1219 25.9865H86.888V27.7525H85.1219V25.9865ZM85.1219 24.2204H86.888V25.9865H85.1219V24.2204ZM83.3558 24.2204H85.1219V25.9865H83.3558V24.2204ZM81.5897 24.2204H83.3558V25.9865H81.5897V24.2204ZM83.3558 25.9865H85.1219V27.7525H83.3558V25.9865ZM83.3558 27.7525H85.1219V29.5186H83.3558V27.7525ZM83.3558 31.2847H85.1219V33.0508H83.3558V31.2847ZM85.1219 31.2847H86.888V33.0508H85.1219V31.2847ZM85.1219 33.0508H86.888V34.8169H85.1219V33.0508ZM85.1219 34.8169H86.888V36.583H85.1219V34.8169ZM83.3558 34.8169H85.1219V36.583H83.3558V34.8169ZM83.3558 33.0508H85.1219V34.8169H83.3558V33.0508ZM81.5897 31.2847H83.3558V33.0508H81.5897V31.2847ZM79.8236 31.2847H81.5897V33.0508H79.8236V31.2847ZM78.0575 31.2847H79.8236V33.0508H78.0575V31.2847ZM76.2914 31.2847H78.0575V33.0508H76.2914V31.2847ZM76.2914 33.0508H78.0575V34.8169H76.2914V33.0508ZM76.2914 34.8169H78.0575V36.583H76.2914V34.8169ZM74.5253 34.8169H76.2914V36.583H74.5253V34.8169ZM74.5253 33.0508H76.2914V34.8169H74.5253V33.0508ZM74.5253 31.2847H76.2914V33.0508H74.5253V31.2847ZM74.5253 29.5186H76.2914V31.2847H74.5253V29.5186ZM74.5253 27.7525H76.2914V29.5186H74.5253V27.7525ZM74.5253 25.9865H76.2914V27.7525H74.5253V25.9865Z" fill="#F0A519"/>
<path d="M88.6586 18.9221H90.4247V20.6882H88.6586V18.9221ZM90.4247 18.9221H92.1908V20.6882H90.4247V18.9221ZM90.4247 20.6882H92.1908V22.4543H90.4247V20.6882ZM90.4247 22.4543H92.1908V24.2204H90.4247V22.4543ZM90.4247 24.2204H92.1908V25.9865H90.4247V24.2204ZM88.6586 24.2204H90.4247V25.9865H88.6586V24.2204ZM88.6586 22.4543H90.4247V24.2204H88.6586V22.4543ZM88.6586 20.6882H90.4247V22.4543H88.6586V20.6882ZM88.6586 25.9865H90.4247V27.7525H88.6586V25.9865ZM88.6586 27.7525H90.4247V29.5186H88.6586V27.7525ZM88.6586 29.5186H90.4247V31.2847H88.6586V29.5186ZM90.4247 27.7525H92.1908V29.5186H90.4247V27.7525ZM90.4247 25.9865H92.1908V27.7525H90.4247V25.9865ZM90.4247 29.5186H92.1908V31.2847H90.4247V29.5186ZM90.4247 31.2847H92.1908V33.0508H90.4247V31.2847ZM88.6586 33.0508H90.4247V34.8169H88.6586V33.0508ZM88.6586 31.2847H90.4247V33.0508H88.6586V31.2847ZM88.6586 34.8169H90.4247V36.583H88.6586V34.8169ZM90.4247 34.8169H92.1908V36.583H90.4247V34.8169ZM90.4247 33.0508H92.1908V34.8169H90.4247V33.0508ZM92.1908 18.9221H93.9569V20.6882H92.1908V18.9221ZM93.9569 18.9221H95.723V20.6882H93.9569V18.9221ZM95.723 18.9221H97.4891V20.6882H95.723V18.9221ZM97.4891 18.9221H99.2552V20.6882H97.4891V18.9221ZM95.723 20.6882H97.4891V22.4543H95.723V20.6882ZM93.9569 20.6882H95.723V22.4543H93.9569V20.6882ZM92.1908 20.6882H93.9569V22.4543H92.1908V20.6882ZM92.1908 27.7525H93.9569V29.5186H92.1908V27.7525ZM93.9569 25.9865H95.723V27.7525H93.9569V25.9865ZM92.1908 25.9865H93.9569V27.7525H92.1908V25.9865ZM93.9569 27.7525H95.723V29.5186H93.9569V27.7525ZM97.4891 20.6882H99.2552V22.4543H97.4891V20.6882ZM95.723 25.9865H97.4891V27.7525H95.723V25.9865ZM95.723 27.7525H97.4891V29.5186H95.723V27.7525Z" fill="#F0A519"/>
<path d="M101.021 18.9221H102.787V20.6882H101.021V18.9221ZM102.787 18.9221H104.553V20.6882H102.787V18.9221ZM104.553 18.9221H106.32V20.6882H104.553V18.9221ZM106.32 18.9221H108.086V20.6882H106.32V18.9221ZM108.086 18.9221H109.852V20.6882H108.086V18.9221ZM109.852 18.9221H111.618V20.6882H109.852V18.9221ZM109.852 20.6882H111.618V22.4543H109.852V20.6882ZM108.086 20.6882H109.852V22.4543H108.086V20.6882ZM106.32 20.6882H108.086V22.4543H106.32V20.6882ZM104.553 20.6882H106.32V22.4543H104.553V20.6882ZM102.787 20.6882H104.553V22.4543H102.787V20.6882ZM101.021 20.6882H102.787V22.4543H101.021V20.6882ZM104.553 22.4543H106.32V24.2204H104.553V22.4543ZM104.553 24.2204H106.32V25.9865H104.553V24.2204ZM104.553 25.9865H106.32V27.7525H104.553V25.9865ZM104.553 27.7525H106.32V29.5186H104.553V27.7525ZM104.553 29.5186H106.32V31.2847H104.553V29.5186ZM104.553 31.2847H106.32V33.0508H104.553V31.2847ZM106.32 29.5186H108.086V31.2847H106.32V29.5186ZM106.32 27.7525H108.086V29.5186H106.32V27.7525ZM106.32 25.9865H108.086V27.7525H106.32V25.9865ZM106.32 24.2204H108.086V25.9865H106.32V24.2204ZM106.32 22.4543H108.086V24.2204H106.32V22.4543ZM106.32 31.2847H108.086V33.0508H106.32V31.2847ZM106.32 33.0508H108.086V34.8169H106.32V33.0508ZM106.32 34.8169H108.086V36.583H106.32V34.8169ZM104.553 34.8169H106.32V36.583H104.553V34.8169ZM104.553 33.0508H106.32V34.8169H104.553V33.0508Z" fill="#F0A519"/>
<path d="M48.0248 20.6882V19.0052H46.3418V20.6882H48.0248ZM51.557 22.4543V24.1373H53.24V22.4543H51.557ZM56.8553 20.6882H58.5382V19.0052H56.8553V20.6882ZM55.0892 22.4543H53.4062V24.1373H55.0892V22.4543ZM56.8553 34.8169V36.4999H58.5382V34.8169H56.8553ZM55.0892 33.0508V31.3678H53.4062V33.0508H55.0892ZM51.557 33.0508H53.24V31.3678H51.557V33.0508ZM48.0248 34.8169H46.3418V36.4999H48.0248V34.8169ZM49.7909 31.2847H51.4739V29.6017H49.7909V31.2847ZM49.7909 24.2204V25.9033H51.4739V24.2204H49.7909ZM63.9242 27.7525H65.6072V26.0696H63.9242V27.7525ZM69.2225 27.7525V26.0696H67.5395V27.7525H69.2225ZM63.9242 31.2847V32.9677H65.6072V31.2847H63.9242ZM69.2225 31.2847H67.5395V32.9677H69.2225V31.2847ZM70.9886 29.5186H72.6715V27.8356H70.9886V29.5186ZM70.9886 20.6882H72.6715V19.0052H70.9886V20.6882ZM69.2225 22.4543H67.5395V24.1373H69.2225V22.4543ZM63.9242 22.4543V24.1373H65.6072V22.4543H63.9242ZM70.9886 27.7525V29.4355H72.6715V27.7525H70.9886ZM79.8236 20.6882V19.0052H78.1406V20.6882H79.8236ZM78.0575 22.4543V20.7713H76.3745V22.4543H78.0575ZM81.5897 20.6882H83.2727V19.0052H81.5897V20.6882ZM83.3558 22.4543H85.0388V20.7713H83.3558V22.4543ZM81.5897 24.2204H79.9067V25.9033H81.5897V24.2204ZM85.1219 24.2204H86.8048V22.5374H85.1219V24.2204ZM79.8236 24.2204V25.9033H81.5066V24.2204H79.8236ZM76.2914 24.2204V22.5374H74.6085V24.2204H76.2914ZM78.0575 25.9865V27.6694H79.7405V25.9865H78.0575ZM78.0575 29.5186H79.7405V27.8356H78.0575V29.5186ZM83.3558 29.5186V27.8356H81.6728V29.5186H83.3558ZM83.3558 25.9865H81.6728V27.6694H83.3558V25.9865ZM83.3558 33.0508H81.6728V34.7338H83.3558V33.0508ZM78.0575 33.0508V34.7338H79.7405V33.0508H78.0575ZM92.1908 22.4543V24.1373H93.8738V22.4543H92.1908ZM92.1908 25.9865H93.8738V24.3035H92.1908V25.9865ZM92.1908 29.5186V31.2016H93.8738V29.5186H92.1908ZM108.086 22.4543V24.1373H109.769V22.4543H108.086ZM104.553 22.4543H102.87V24.1373H104.553V22.4543ZM49.874 18.9221V20.6882H53.24V18.9221H49.874ZM51.557 19.0052H49.7909V22.3712H51.557V19.0052ZM51.4739 20.6882V18.9221H48.1079V20.6882H51.4739ZM49.7909 19.0052H48.0248V22.3712H49.7909V19.0052ZM48.1079 20.6882V22.4543H51.4739V20.6882H48.1079ZM49.7909 20.7713H48.0248V24.1373H49.7909V20.7713ZM49.7078 22.4543V20.6882H46.3418V22.4543H49.7078ZM49.874 20.6882V22.4543H53.24V20.6882H49.874ZM51.557 20.7713H49.7909V24.1373H51.557V20.7713ZM51.557 22.3712H53.3231V19.0052H51.557V22.3712ZM51.6401 20.6882V22.4543H55.0061V20.6882H51.6401ZM51.6401 18.9221V20.6882H55.0061V18.9221H51.6401ZM53.4062 18.9221V20.6882H56.7721V18.9221H53.4062ZM55.0892 19.0052H53.3231V22.3712H55.0892V19.0052ZM56.8553 19.0052H55.0892V22.3712H56.8553V19.0052ZM55.1723 20.6882V22.4543H58.5382V20.6882H55.1723ZM56.8553 20.7713H55.0892V24.1373H56.8553V20.7713ZM56.7721 22.4543V20.6882H53.4062V22.4543H56.7721ZM55.1723 22.4543V24.2204H58.5382V22.4543H55.1723ZM58.6213 20.7713H56.8553V24.1373H58.6213V20.7713ZM58.6213 31.3678H56.8553V34.7338H58.6213V31.3678ZM58.5382 33.0508V31.2847H55.1723V33.0508H58.5382ZM58.5382 34.8169V33.0508H55.1723V34.8169H58.5382ZM55.0892 34.7338H56.8553V31.3678H55.0892V34.7338ZM56.8553 33.1339H55.0892V36.4999H56.8553V33.1339ZM56.7721 34.8169V33.0508H53.4062V34.8169H56.7721ZM55.0892 33.1339H53.3231V36.4999H55.0892V33.1339ZM55.0061 34.8169V33.0508H51.6401V34.8169H55.0061ZM56.7721 36.583V34.8169H53.4062V36.583H56.7721ZM55.0061 36.583V34.8169H51.6401V36.583H55.0061ZM51.557 36.4999H53.3231V33.1339H51.557V36.4999ZM53.24 36.583V34.8169H49.874V36.583H53.24ZM53.24 34.8169V33.0508H49.874V34.8169H53.24ZM49.7909 36.4999H51.557V33.1339H49.7909V36.4999ZM51.4739 36.583V34.8169H48.1079V36.583H51.4739ZM48.0248 36.4999H49.7909V33.1339H48.0248V36.4999ZM48.0248 34.7338H49.7909V31.3678H48.0248V34.7338ZM48.1079 33.0508V34.8169H51.4739V33.0508H48.1079ZM49.7078 34.8169V33.0508H46.3418V34.8169H49.7078ZM49.7909 34.7338H51.557V31.3678H49.7909V34.7338ZM51.4739 33.0508V31.2847H48.1079V33.0508H51.4739ZM48.0248 32.9677H49.7909V29.6017H48.0248V32.9677ZM49.7078 33.0508V31.2847H46.3418V33.0508H49.7078ZM46.2587 34.7338H48.0248V31.3678H46.2587V34.7338ZM46.2587 32.9677H48.0248V29.6017H46.2587V32.9677ZM46.2587 31.2016H48.0248V27.8356H46.2587V31.2016ZM46.3418 29.5186V31.2847H49.7078V29.5186H46.3418ZM46.2587 29.4355H48.0248V26.0696H46.2587V29.4355ZM46.3418 27.7525V29.5186H49.7078V27.7525H46.3418ZM46.2587 27.6694H48.0248V24.3035H46.2587V27.6694ZM46.3418 25.9865V27.7525H49.7078V25.9865H46.3418ZM46.2587 25.9033H48.0248V22.5374H46.2587V25.9033ZM46.3418 24.2204V25.9865H49.7078V24.2204H46.3418ZM46.2587 24.1373H48.0248V20.7713H46.2587V24.1373ZM46.3418 22.4543V24.2204H49.7078V22.4543H46.3418ZM48.1079 22.4543V24.2204H51.4739V22.4543H48.1079ZM49.7909 22.5374H48.0248V25.9033H49.7909V22.5374ZM49.7909 24.3035H48.0248V27.6694H49.7909V24.3035ZM49.7909 26.0696H48.0248V29.4355H49.7909V26.0696ZM49.7909 27.8356H48.0248V31.2016H49.7909V27.8356ZM62.1581 29.4355H63.9242V26.0696H62.1581V29.4355ZM62.2412 27.7525V29.5186H65.6072V27.7525H62.2412ZM63.9242 27.8356H62.1581V31.2016H63.9242V27.8356ZM63.8411 29.5186V27.7525H60.4751V29.5186H63.8411ZM64.0073 27.7525V29.5186H67.3733V27.7525H64.0073ZM65.6903 27.8356H63.9242V31.2016H65.6903V27.8356ZM65.7734 27.7525V29.5186H69.1394V27.7525H65.7734ZM67.4564 27.8356H65.6903V31.2016H67.4564V27.8356ZM67.5395 27.7525V29.5186H70.9055V27.7525H67.5395ZM69.2225 27.8356H67.4564V31.2016H69.2225V27.8356ZM64.0073 29.5186V31.2847H67.3733V29.5186H64.0073ZM65.6072 31.2847V29.5186H62.2412V31.2847H65.6072ZM63.9242 29.6017H62.1581V32.9677H63.9242V29.6017ZM63.8411 31.2847V29.5186H60.4751V31.2847H63.8411ZM65.7734 29.5186V31.2847H69.1394V29.5186H65.7734ZM67.5395 29.5186V31.2847H70.9055V29.5186H67.5395ZM69.2225 32.9677H70.9886V29.6017H69.2225V32.9677ZM69.3056 31.2847V33.0508H72.6715V31.2847H69.3056ZM70.9886 31.3678H69.2225V34.7338H70.9886V31.3678ZM72.7547 29.6017H70.9886V32.9677H72.7547V29.6017ZM72.6715 31.2847V29.5186H69.3056V31.2847H72.6715ZM69.2225 31.2016H70.9886V27.8356H69.2225V31.2016ZM72.7547 31.3678H70.9886V34.7338H72.7547V31.3678ZM69.3056 33.0508V34.8169H72.6715V33.0508H69.3056ZM70.9886 33.1339H69.2225V36.4999H70.9886V33.1339ZM72.7547 33.1339H70.9886V36.4999H72.7547V33.1339ZM72.6715 36.583V34.8169H69.3056V36.583H72.6715ZM62.1581 36.4999H63.9242V33.1339H62.1581V36.4999ZM63.8411 36.583V34.8169H60.4751V36.583H63.8411ZM60.392 36.4999H62.1581V33.1339H60.392V36.4999ZM60.392 34.7338H62.1581V31.3678H60.392V34.7338ZM60.4751 33.0508V34.8169H63.8411V33.0508H60.4751ZM62.1581 34.7338H63.9242V31.3678H62.1581V34.7338ZM63.8411 33.0508V31.2847H60.4751V33.0508H63.8411ZM60.392 32.9677H62.1581V29.6017H60.392V32.9677ZM60.392 31.2016H62.1581V27.8356H60.392V31.2016ZM60.392 29.4355H62.1581V26.0696H60.392V29.4355ZM60.392 27.6694H62.1581V24.3035H60.392V27.6694ZM60.4751 25.9865V27.7525H63.8411V25.9865H60.4751ZM62.1581 27.6694H63.9242V24.3035H62.1581V27.6694ZM60.4751 18.9221V20.6882H63.8411V18.9221H60.4751ZM62.1581 19.0052H60.392V22.3712H62.1581V19.0052ZM62.2412 18.9221V20.6882H65.6072V18.9221H62.2412ZM63.9242 19.0052H62.1581V22.3712H63.9242V19.0052ZM64.0073 18.9221V20.6882H67.3733V18.9221H64.0073ZM65.6903 19.0052H63.9242V22.3712H65.6903V19.0052ZM65.7734 18.9221V20.6882H69.1394V18.9221H65.7734ZM67.4564 19.0052H65.6903V22.3712H67.4564V19.0052ZM67.5395 18.9221V20.6882H70.9055V18.9221H67.5395ZM69.2225 19.0052H67.4564V22.3712H69.2225V19.0052ZM70.9886 19.0052H69.2225V22.3712H70.9886V19.0052ZM69.3056 20.6882V22.4543H72.6715V20.6882H69.3056ZM70.9886 20.7713H69.2225V24.1373H70.9886V20.7713ZM70.9055 22.4543V20.6882H67.5395V22.4543H70.9055ZM69.1394 22.4543V20.6882H65.7734V22.4543H69.1394ZM67.3733 22.4543V20.6882H64.0073V22.4543H67.3733ZM65.6072 22.4543V20.6882H62.2412V22.4543H65.6072ZM63.9242 20.7713H62.1581V24.1373H63.9242V20.7713ZM63.8411 22.4543V20.6882H60.4751V22.4543H63.8411ZM62.1581 20.7713H60.392V24.1373H62.1581V20.7713ZM60.4751 22.4543V24.2204H63.8411V22.4543H60.4751ZM62.1581 22.5374H60.392V25.9033H62.1581V22.5374ZM60.4751 24.2204V25.9865H63.8411V24.2204H60.4751ZM62.1581 25.9033H63.9242V22.5374H62.1581V25.9033ZM69.3056 22.4543V24.2204H72.6715V22.4543H69.3056ZM70.9886 22.5374H69.2225V25.9033H70.9886V22.5374ZM70.9886 24.1373H72.7547V20.7713H70.9886V24.1373ZM72.7547 22.5374H70.9886V25.9033H72.7547V22.5374ZM72.7547 24.3035H70.9886V27.6694H72.7547V24.3035ZM72.6715 25.9865V24.2204H69.3056V25.9865H72.6715ZM70.9886 24.3035H69.2225V27.6694H70.9886V24.3035ZM69.3056 25.9865V27.7525H72.6715V25.9865H69.3056ZM70.9886 26.0696H69.2225V29.4355H70.9886V26.0696ZM78.1406 20.6882V22.4543H81.5066V20.6882H78.1406ZM79.8236 20.7713H78.0575V24.1373H79.8236V20.7713ZM79.8236 22.3712H81.5897V19.0052H79.8236V22.3712ZM79.9067 20.6882V22.4543H83.2727V20.6882H79.9067ZM81.5897 20.7713H79.8236V24.1373H81.5897V20.7713ZM83.3558 20.7713H81.5897V24.1373H83.3558V20.7713ZM81.6728 22.4543V24.2204H85.0388V22.4543H81.6728ZM83.3558 22.5374H81.5897V25.9033H83.3558V22.5374ZM83.2727 24.2204V22.4543H79.9067V24.2204H83.2727ZM85.1219 22.5374H83.3558V25.9033H85.1219V22.5374ZM81.5066 24.2204V22.4543H78.1406V24.2204H81.5066ZM79.8236 22.5374H78.0575V25.9033H79.8236V22.5374ZM79.7405 24.2204V22.4543H76.3745V24.2204H79.7405ZM78.0575 22.5374H76.2914V25.9033H78.0575V22.5374ZM76.3745 24.2204V25.9865H79.7405V24.2204H76.3745ZM78.0575 24.3035H76.2914V27.6694H78.0575V24.3035ZM77.9744 25.9865V24.2204H74.6085V25.9865H77.9744ZM76.2914 24.3035H74.5253V27.6694H76.2914V24.3035ZM78.0575 26.0696H76.2914V29.4355H78.0575V26.0696ZM77.9744 27.7525V25.9865H74.6085V27.7525H77.9744ZM78.0575 27.8356H76.2914V31.2016H78.0575V27.8356ZM77.9744 29.5186V27.7525H74.6085V29.5186H77.9744ZM76.3745 29.5186V31.2847H79.7405V29.5186H76.3745ZM78.0575 29.6017H76.2914V32.9677H78.0575V29.6017ZM77.9744 31.2847V29.5186H74.6085V31.2847H77.9744ZM78.1406 29.5186V31.2847H81.5066V29.5186H78.1406ZM79.8236 29.6017H78.0575V32.9677H79.8236V29.6017ZM79.9067 29.5186V31.2847H83.2727V29.5186H79.9067ZM81.5897 29.6017H79.8236V32.9677H81.5897V29.6017ZM81.6728 29.5186V31.2847H85.0388V29.5186H81.6728ZM83.3558 29.6017H81.5897V32.9677H83.3558V29.6017ZM83.3558 31.2016H85.1219V27.8356H83.3558V31.2016ZM83.4389 29.5186V31.2847H86.8048V29.5186H83.4389ZM85.1219 29.6017H83.3558V32.9677H85.1219V29.6017ZM85.1219 31.2016H86.888V27.8356H85.1219V31.2016ZM86.888 29.6017H85.1219V32.9677H86.888V29.6017ZM85.1219 29.4355H86.888V26.0696H85.1219V29.4355ZM86.8048 29.5186V27.7525H83.4389V29.5186H86.8048ZM85.1219 27.6694H86.888V24.3035H85.1219V27.6694ZM86.8048 27.7525V25.9865H83.4389V27.7525H86.8048ZM86.8048 25.9865V24.2204H83.4389V25.9865H86.8048ZM85.1219 24.3035H83.3558V27.6694H85.1219V24.3035ZM85.0388 25.9865V24.2204H81.6728V25.9865H85.0388ZM85.1219 26.0696H83.3558V29.4355H85.1219V26.0696ZM83.4389 31.2847V33.0508H86.8048V31.2847H83.4389ZM85.1219 31.3678H83.3558V34.7338H85.1219V31.3678ZM85.0388 33.0508V31.2847H81.6728V33.0508H85.0388ZM86.888 31.3678H85.1219V34.7338H86.888V31.3678ZM86.888 33.1339H85.1219V36.4999H86.888V33.1339ZM86.8048 34.8169V33.0508H83.4389V34.8169H86.8048ZM86.8048 36.583V34.8169H83.4389V36.583H86.8048ZM83.3558 36.4999H85.1219V33.1339H83.3558V36.4999ZM83.2727 33.0508V31.2847H79.9067V33.0508H83.2727ZM81.5066 33.0508V31.2847H78.1406V33.0508H81.5066ZM79.7405 33.0508V31.2847H76.3745V33.0508H79.7405ZM78.0575 31.3678H76.2914V34.7338H78.0575V31.3678ZM77.9744 33.0508V31.2847H74.6085V33.0508H77.9744ZM78.0575 33.1339H76.2914V36.4999H78.0575V33.1339ZM77.9744 34.8169V33.0508H74.6085V34.8169H77.9744ZM77.9744 36.583V34.8169H74.6085V36.583H77.9744ZM74.5253 36.4999H76.2914V33.1339H74.5253V36.4999ZM74.5253 34.7338H76.2914V31.3678H74.5253V34.7338ZM74.5253 32.9677H76.2914V29.6017H74.5253V32.9677ZM74.5253 31.2016H76.2914V27.8356H74.5253V31.2016ZM74.5253 29.4355H76.2914V26.0696H74.5253V29.4355ZM88.7418 18.9221V20.6882H92.1077V18.9221H88.7418ZM90.4247 19.0052H88.6586V22.3712H90.4247V19.0052ZM90.5078 18.9221V20.6882H93.8738V18.9221H90.5078ZM92.1908 19.0052H90.4247V22.3712H92.1908V19.0052ZM90.5078 20.6882V22.4543H93.8738V20.6882H90.5078ZM92.1908 20.7713H90.4247V24.1373H92.1908V20.7713ZM92.1077 22.4543V20.6882H88.7418V22.4543H92.1077ZM92.1908 22.5374H90.4247V25.9033H92.1908V22.5374ZM92.1077 24.2204V22.4543H88.7418V24.2204H92.1077ZM92.1908 24.3035H90.4247V27.6694H92.1908V24.3035ZM92.1077 25.9865V24.2204H88.7418V25.9865H92.1077ZM88.6586 25.9033H90.4247V22.5374H88.6586V25.9033ZM90.4247 24.3035H88.6586V27.6694H90.4247V24.3035ZM88.6586 24.1373H90.4247V20.7713H88.6586V24.1373ZM88.7418 25.9865V27.7525H92.1077V25.9865H88.7418ZM90.4247 26.0696H88.6586V29.4355H90.4247V26.0696ZM88.7418 27.7525V29.5186H92.1077V27.7525H88.7418ZM90.4247 27.8356H88.6586V31.2016H90.4247V27.8356ZM88.7418 29.5186V31.2847H92.1077V29.5186H88.7418ZM90.4247 29.6017H88.6586V32.9677H90.4247V29.6017ZM90.4247 29.4355H92.1908V26.0696H90.4247V29.4355ZM90.5078 27.7525V29.5186H93.8738V27.7525H90.5078ZM92.1908 27.8356H90.4247V31.2016H92.1908V27.8356ZM90.5078 25.9865V27.7525H93.8738V25.9865H90.5078ZM92.1908 29.6017H90.4247V32.9677H92.1908V29.6017ZM92.1908 31.3678H90.4247V34.7338H92.1908V31.3678ZM92.1077 33.0508V31.2847H88.7418V33.0508H92.1077ZM88.6586 34.7338H90.4247V31.3678H88.6586V34.7338ZM88.7418 33.0508V34.8169H92.1077V33.0508H88.7418ZM90.4247 33.1339H88.6586V36.4999H90.4247V33.1339ZM88.7418 34.8169V36.583H92.1077V34.8169H88.7418ZM90.4247 36.4999H92.1908V33.1339H90.4247V36.4999ZM92.2739 18.9221V20.6882H95.6399V18.9221H92.2739ZM93.9569 19.0052H92.1908V22.3712H93.9569V19.0052ZM94.04 18.9221V20.6882H97.406V18.9221H94.04ZM95.723 19.0052H93.9569V22.3712H95.723V19.0052ZM95.8061 18.9221V20.6882H99.1721V18.9221H95.8061ZM97.4891 19.0052H95.723V22.3712H97.4891V19.0052ZM99.2552 19.0052H97.4891V22.3712H99.2552V19.0052ZM95.8061 20.6882V22.4543H99.1721V20.6882H95.8061ZM97.406 22.4543V20.6882H94.04V22.4543H97.406ZM95.6399 22.4543V20.6882H92.2739V22.4543H95.6399ZM92.1908 29.4355H93.9569V26.0696H92.1908V29.4355ZM92.2739 27.7525V29.5186H95.6399V27.7525H92.2739ZM94.04 25.9865V27.7525H97.406V25.9865H94.04ZM95.723 26.0696H93.9569V29.4355H95.723V26.0696ZM95.6399 27.7525V25.9865H92.2739V27.7525H95.6399ZM94.04 27.7525V29.5186H97.406V27.7525H94.04ZM97.4891 26.0696H95.723V29.4355H97.4891V26.0696ZM101.104 18.9221V20.6882H104.47V18.9221H101.104ZM102.787 19.0052H101.021V22.3712H102.787V19.0052ZM102.87 18.9221V20.6882H106.236V18.9221H102.87ZM104.553 19.0052H102.787V22.3712H104.553V19.0052ZM104.637 18.9221V20.6882H108.003V18.9221H104.637ZM106.32 19.0052H104.553V22.3712H106.32V19.0052ZM106.403 18.9221V20.6882H109.769V18.9221H106.403ZM108.086 19.0052H106.32V22.3712H108.086V19.0052ZM108.169 18.9221V20.6882H111.535V18.9221H108.169ZM109.852 19.0052H108.086V22.3712H109.852V19.0052ZM111.618 19.0052H109.852V22.3712H111.618V19.0052ZM111.535 22.4543V20.6882H108.169V22.4543H111.535ZM109.769 22.4543V20.6882H106.403V22.4543H109.769ZM108.086 20.7713H106.32V24.1373H108.086V20.7713ZM108.003 22.4543V20.6882H104.637V22.4543H108.003ZM106.32 20.7713H104.553V24.1373H106.32V20.7713ZM106.236 22.4543V20.6882H102.87V22.4543H106.236ZM104.47 22.4543V20.6882H101.104V22.4543H104.47ZM104.637 22.4543V24.2204H108.003V22.4543H104.637ZM106.32 22.5374H104.553V25.9033H106.32V22.5374ZM104.637 24.2204V25.9865H108.003V24.2204H104.637ZM106.32 24.3035H104.553V27.6694H106.32V24.3035ZM104.637 25.9865V27.7525H108.003V25.9865H104.637ZM106.32 26.0696H104.553V29.4355H106.32V26.0696ZM104.637 27.7525V29.5186H108.003V27.7525H104.637ZM106.32 27.8356H104.553V31.2016H106.32V27.8356ZM104.637 29.5186V31.2847H108.003V29.5186H104.637ZM106.32 29.6017H104.553V32.9677H106.32V29.6017ZM104.637 31.2847V33.0508H108.003V31.2847H104.637ZM106.32 31.3678H104.553V34.7338H106.32V31.3678ZM106.32 31.2016H108.086V27.8356H106.32V31.2016ZM108.086 29.6017H106.32V32.9677H108.086V29.6017ZM106.32 29.4355H108.086V26.0696H106.32V29.4355ZM106.32 27.6694H108.086V24.3035H106.32V27.6694ZM106.32 25.9033H108.086V22.5374H106.32V25.9033ZM108.086 31.3678H106.32V34.7338H108.086V31.3678ZM108.086 33.1339H106.32V36.4999H108.086V33.1339ZM108.003 34.8169V33.0508H104.637V34.8169H108.003ZM108.003 36.583V34.8169H104.637V36.583H108.003ZM104.553 36.4999H106.32V33.1339H104.553V36.4999ZM48.0248 18.9221V15.5561H44.6589V18.9221H48.0248ZM48.0248 20.6882V24.0541H51.3908V20.6882H48.0248ZM51.557 22.4543V19.0883H48.191V22.4543H51.557ZM56.8553 18.9221H60.2212V15.5561H56.8553V18.9221ZM56.8553 20.6882H53.4893V24.0541H56.8553V20.6882ZM55.0892 22.4543H58.4551V19.0883H55.0892V22.4543ZM55.0892 24.2204H51.7232V27.5863H55.0892V24.2204ZM58.6213 20.6882H61.9873V17.3222H58.6213V20.6882ZM58.6213 24.2204V27.5863H61.9873V24.2204H58.6213ZM58.6213 31.2847H61.9873V27.9188H58.6213V31.2847ZM58.6213 34.8169V38.1828H61.9873V34.8169H58.6213ZM56.8553 34.8169V31.4509H53.4893V34.8169H56.8553ZM55.0892 33.0508V36.4168H58.4551V33.0508H55.0892ZM55.0892 31.2847V27.9188H51.7232V31.2847H55.0892ZM56.8553 36.583V39.9489H60.2212V36.583H56.8553ZM51.557 33.0508H48.191V36.4168H51.557V33.0508ZM48.0248 34.8169H51.3908V31.4509H48.0248V34.8169ZM48.0248 36.583H44.6589V39.9489H48.0248V36.583ZM49.7909 31.2847H46.4249V34.6507H49.7909V31.2847ZM51.557 31.2847H54.9229V27.9188H51.557V31.2847ZM46.2587 34.8169H42.8928V38.1828H46.2587V34.8169ZM49.7909 24.2204V20.8544H46.4249V24.2204H49.7909ZM46.2587 20.6882V17.3222H42.8928V20.6882H46.2587ZM51.557 24.2204V27.5863H54.9229V24.2204H51.557ZM63.9242 27.7525H60.5583V31.1185H63.9242V27.7525ZM69.2225 27.7525V31.1185H72.5884V27.7525H69.2225ZM63.9242 31.2847V27.9188H60.5583V31.2847H63.9242ZM69.2225 31.2847H72.5884V27.9188H69.2225V31.2847ZM70.9886 29.5186H67.6226V32.8846H70.9886V29.5186ZM72.7547 29.5186H76.1206V26.1527H72.7547V29.5186ZM72.7547 36.583V39.9489H76.1206V36.583H72.7547ZM69.2225 36.583H65.8565V39.9489H69.2225V36.583ZM63.9242 36.583V39.9489H67.2902V36.583H63.9242ZM60.392 36.583H57.0261V39.9489H60.392V36.583ZM60.392 18.9221V15.5561H57.0261V18.9221H60.392ZM70.9886 18.9221H74.3545V15.5561H70.9886V18.9221ZM70.9886 20.6882H67.6226V24.0541H70.9886V20.6882ZM69.2225 22.4543H72.5884V19.0883H69.2225V22.4543ZM63.9242 22.4543V19.0883H60.5583V22.4543H63.9242ZM72.7547 20.6882H76.1206V17.3222H72.7547V20.6882ZM70.9886 27.7525V24.3866H67.6226V27.7525H70.9886ZM72.7547 27.7525V31.1185H76.1206V27.7525H72.7547ZM78.0575 20.6882V17.3222H74.6916V20.6882H78.0575ZM79.8236 20.6882V24.0541H83.1896V20.6882H79.8236ZM78.0575 22.4543V25.8202H81.4235V22.4543H78.0575ZM81.5897 20.6882H78.2237V24.0541H81.5897V20.6882ZM79.8236 18.9221V15.5561H76.4576V18.9221H79.8236ZM81.5897 18.9221H84.9557V15.5561H81.5897V18.9221ZM83.3558 20.6882H86.7217V17.3222H83.3558V20.6882ZM83.3558 22.4543H79.9898V25.8202H83.3558V22.4543ZM81.5897 24.2204H84.9557V20.8544H81.5897V24.2204ZM85.1219 22.4543H88.4878V19.0883H85.1219V22.4543ZM85.1219 24.2204H81.7559V27.5863H85.1219V24.2204ZM79.8236 24.2204V20.8544H76.4576V24.2204H79.8236ZM76.2914 22.4543V19.0883H72.9255V22.4543H76.2914ZM76.2914 24.2204V27.5863H79.6574V24.2204H76.2914ZM78.0575 25.9865V22.6205H74.6916V25.9865H78.0575ZM74.5253 24.2204V20.8544H71.1594V24.2204H74.5253ZM79.8236 25.9865V29.3524H83.1896V25.9865H79.8236ZM78.0575 29.5186H74.6916V32.8846H78.0575V29.5186ZM83.3558 29.5186V32.8846H86.7217V29.5186H83.3558ZM86.888 24.2204H90.2539V20.8544H86.888V24.2204ZM83.3558 25.9865H86.7217V22.6205H83.3558V25.9865ZM81.5897 25.9865H78.2237V29.3524H81.5897V25.9865ZM83.3558 33.0508H86.7217V29.6848H83.3558V33.0508ZM86.888 36.583V39.9489H90.2539V36.583H86.888ZM83.3558 36.583H79.9898V39.9489H83.3558V36.583ZM78.0575 33.0508V29.6848H74.6916V33.0508H78.0575ZM78.0575 36.583V39.9489H81.4235V36.583H78.0575ZM74.5253 36.583H71.1594V39.9489H74.5253V36.583ZM88.6586 18.9221V15.5561H85.2927V18.9221H88.6586ZM92.1908 22.4543V19.0883H88.8249V22.4543H92.1908ZM92.1908 25.9865H88.8249V29.3524H92.1908V25.9865ZM92.1908 29.5186V26.1527H88.8249V29.5186H92.1908ZM88.6586 36.583H85.2927V39.9489H88.6586V36.583ZM92.1908 36.583V39.9489H95.5568V36.583H92.1908ZM99.2552 18.9221H102.621V15.5561H99.2552V18.9221ZM99.2552 22.4543V25.8202H102.621V22.4543H99.2552ZM97.4891 25.9865H100.855V22.6205H97.4891V25.9865ZM97.4891 29.5186V32.8846H100.855V29.5186H97.4891ZM101.021 18.9221V15.5561H97.6553V18.9221H101.021ZM111.618 18.9221H114.984V15.5561H111.618V18.9221ZM111.618 22.4543V25.8202H114.984V22.4543H111.618ZM108.086 22.4543V19.0883H104.72V22.4543H108.086ZM104.553 22.4543H107.919V19.0883H104.553V22.4543ZM101.021 22.4543H97.6553V25.8202H101.021V22.4543ZM108.086 36.583V39.9489H111.452V36.583H108.086ZM104.553 36.583H101.187V39.9489H104.553V36.583ZM49.7909 22.2881H51.557V15.5561H49.7909V22.2881ZM48.0248 22.2881H49.7909V15.5561H48.0248V22.2881ZM51.3908 20.6882V18.9221H44.6589V20.6882H51.3908ZM53.3231 19.0883H51.557V25.8202H53.3231V19.0883ZM51.557 22.2881H53.3231V15.5561H51.557V22.2881ZM53.3231 22.2881H55.0892V15.5561H53.3231V22.2881ZM55.0892 22.2881H56.8553V15.5561H55.0892V22.2881ZM53.4893 18.9221V20.6882H60.2212V18.9221H53.4893ZM55.0892 19.0883H53.3231V25.8202H55.0892V19.0883ZM56.8553 20.8544H55.0892V27.5863H56.8553V20.8544ZM58.4551 24.2204V22.4543H51.7232V24.2204H58.4551ZM56.8553 24.0541H58.6213V17.3222H56.8553V24.0541ZM55.2554 20.6882V22.4543H61.9873V20.6882H55.2554ZM55.2554 22.4543V24.2204H61.9873V22.4543H55.2554ZM58.6213 20.8544H56.8553V27.5863H58.6213V20.8544ZM56.8553 34.6507H58.6213V27.9188H56.8553V34.6507ZM55.2554 31.2847V33.0508H61.9873V31.2847H55.2554ZM55.2554 33.0508V34.8169H61.9873V33.0508H55.2554ZM58.6213 31.4509H56.8553V38.1828H58.6213V31.4509ZM55.0892 34.6507H56.8553V27.9188H55.0892V34.6507ZM58.4551 33.0508V31.2847H51.7232V33.0508H58.4551ZM53.3231 36.4168H55.0892V29.6848H53.3231V36.4168ZM53.4893 34.8169V36.583H60.2212V34.8169H53.4893ZM56.8553 33.217H55.0892V39.9489H56.8553V33.217ZM55.0892 33.217H53.3231V39.9489H55.0892V33.217ZM53.3231 33.217H51.557V39.9489H53.3231V33.217ZM51.557 36.4168H53.3231V29.6848H51.557V36.4168ZM51.557 33.217H49.7909V39.9489H51.557V33.217ZM49.7909 33.217H48.0248V39.9489H49.7909V33.217ZM51.3908 36.583V34.8169H44.6589V36.583H51.3908ZM49.7909 34.6507H51.557V27.9188H49.7909V34.6507ZM48.191 31.2847V33.0508H54.9229V31.2847H48.191ZM48.0248 31.4509H46.2587V38.1828H48.0248V31.4509ZM49.6247 34.8169V33.0508H42.8928V34.8169H49.6247ZM49.6247 33.0508V31.2847H42.8928V33.0508H49.6247ZM49.6247 31.2847V29.5186H42.8928V31.2847H49.6247ZM49.6247 29.5186V27.7525H42.8928V29.5186H49.6247ZM49.6247 27.7525V25.9865H42.8928V27.7525H49.6247ZM49.6247 25.9865V24.2204H42.8928V25.9865H49.6247ZM49.6247 24.2204V22.4543H42.8928V24.2204H49.6247ZM46.2587 24.0541H48.0248V17.3222H46.2587V24.0541ZM49.6247 22.4543V20.6882H42.8928V22.4543H49.6247ZM48.191 22.4543V24.2204H54.9229V22.4543H48.191ZM51.557 20.8544H49.7909V27.5863H51.557V20.8544ZM46.4249 24.2204V25.9865H53.1569V24.2204H46.4249ZM46.4249 25.9865V27.7525H53.1569V25.9865H46.4249ZM46.4249 27.7525V29.5186H53.1569V27.7525H46.4249ZM46.4249 29.5186V31.2847H53.1569V29.5186H46.4249ZM63.9242 31.1185H65.6903V24.3866H63.9242V31.1185ZM65.6903 31.1185H67.4564V24.3866H65.6903V31.1185ZM67.4564 31.1185H69.2225V24.3866H67.4564V31.1185ZM65.6903 27.9188H63.9242V34.6507H65.6903V27.9188ZM67.4564 27.9188H65.6903V34.6507H67.4564V27.9188ZM69.2225 27.9188H67.4564V34.6507H69.2225V27.9188ZM72.5884 33.0508V31.2847H65.8565V33.0508H72.5884ZM70.9886 32.8846H72.7547V26.1527H70.9886V32.8846ZM69.3887 29.5186V31.2847H76.1206V29.5186H69.3887ZM69.3887 31.2847V33.0508H76.1206V31.2847H69.3887ZM72.5884 34.8169V33.0508H65.8565V34.8169H72.5884ZM69.3887 33.0508V34.8169H76.1206V33.0508H69.3887ZM69.3887 34.8169V36.583H76.1206V34.8169H69.3887ZM72.7547 33.217H70.9886V39.9489H72.7547V33.217ZM70.9886 33.217H69.2225V39.9489H70.9886V33.217ZM72.5884 36.583V34.8169H65.8565V36.583H72.5884ZM60.5583 34.8169V36.583H67.2902V34.8169H60.5583ZM63.9242 33.217H62.1581V39.9489H63.9242V33.217ZM62.1581 33.217H60.392V39.9489H62.1581V33.217ZM63.758 36.583V34.8169H57.0261V36.583H63.758ZM63.758 34.8169V33.0508H57.0261V34.8169H63.758ZM60.5583 33.0508V34.8169H67.2902V33.0508H60.5583ZM60.5583 31.2847V33.0508H67.2902V31.2847H60.5583ZM63.758 33.0508V31.2847H57.0261V33.0508H63.758ZM63.758 31.2847V29.5186H57.0261V31.2847H63.758ZM63.758 29.5186V27.7525H57.0261V29.5186H63.758ZM63.758 27.7525V25.9865H57.0261V27.7525H63.758ZM60.5583 25.9865V27.7525H67.2902V25.9865H60.5583ZM60.392 22.2881H62.1581V15.5561H60.392V22.2881ZM63.758 20.6882V18.9221H57.0261V20.6882H63.758ZM62.1581 22.2881H63.9242V15.5561H62.1581V22.2881ZM63.9242 22.2881H65.6903V15.5561H63.9242V22.2881ZM65.6903 22.2881H67.4564V15.5561H65.6903V22.2881ZM67.4564 22.2881H69.2225V15.5561H67.4564V22.2881ZM69.2225 22.2881H70.9886V15.5561H69.2225V22.2881ZM67.6226 18.9221V20.6882H74.3545V18.9221H67.6226ZM69.2225 19.0883H67.4564V25.8202H69.2225V19.0883ZM67.4564 19.0883H65.6903V25.8202H67.4564V19.0883ZM65.6903 19.0883H63.9242V25.8202H65.6903V19.0883ZM63.758 22.4543V20.6882H57.0261V22.4543H63.758ZM63.758 24.2204V22.4543H57.0261V24.2204H63.758ZM63.758 25.9865V24.2204H57.0261V25.9865H63.758ZM60.5583 24.2204V25.9865H67.2902V24.2204H60.5583ZM60.5583 22.4543V24.2204H67.2902V22.4543H60.5583ZM72.5884 24.2204V22.4543H65.8565V24.2204H72.5884ZM69.3887 22.4543V24.2204H76.1206V22.4543H69.3887ZM70.9886 24.0541H72.7547V17.3222H70.9886V24.0541ZM69.3887 20.6882V22.4543H76.1206V20.6882H69.3887ZM69.3887 24.2204V25.9865H76.1206V24.2204H69.3887ZM72.5884 25.9865V24.2204H65.8565V25.9865H72.5884ZM72.5884 27.7525V25.9865H65.8565V27.7525H72.5884ZM69.3887 25.9865V27.7525H76.1206V25.9865H69.3887ZM72.7547 24.3866H70.9886V31.1185H72.7547V24.3866ZM67.6226 27.7525V29.5186H74.3545V27.7525H67.6226ZM78.0575 24.0541H79.8236V17.3222H78.0575V24.0541ZM81.4235 22.4543V20.6882H74.6916V22.4543H81.4235ZM79.8236 22.2881H81.5897V15.5561H79.8236V22.2881ZM78.2237 18.9221V20.6882H84.9557V18.9221H78.2237ZM83.1896 20.6882V18.9221H76.4576V20.6882H83.1896ZM81.5897 24.0541H83.3558V17.3222H81.5897V24.0541ZM79.9898 20.6882V22.4543H86.7217V20.6882H79.9898ZM83.3558 25.8202H85.1219V19.0883H83.3558V25.8202ZM81.7559 22.4543V24.2204H88.4878V22.4543H81.7559ZM81.5897 20.8544H79.8236V27.5863H81.5897V20.8544ZM76.2914 25.8202H78.0575V19.0883H76.2914V25.8202ZM79.6574 24.2204V22.4543H72.9255V24.2204H79.6574ZM74.5253 27.5863H76.2914V20.8544H74.5253V27.5863ZM77.8913 25.9865V24.2204H71.1594V25.9865H77.8913ZM76.4576 24.2204V25.9865H83.1896V24.2204H76.4576ZM79.8236 22.6205H78.0575V29.3524H79.8236V22.6205ZM74.6916 25.9865V27.7525H81.4235V25.9865H74.6916ZM74.6916 27.7525V29.5186H81.4235V27.7525H74.6916ZM78.0575 32.8846H79.8236V26.1527H78.0575V32.8846ZM79.8236 32.8846H81.5897V26.1527H79.8236V32.8846ZM81.5897 32.8846H83.3558V26.1527H81.5897V32.8846ZM83.522 29.5186V31.2847H90.2539V29.5186H83.522ZM83.522 27.7525V29.5186H90.2539V27.7525H83.522ZM83.522 25.9865V27.7525H90.2539V25.9865H83.522ZM85.1219 27.5863H86.888V20.8544H85.1219V27.5863ZM83.522 24.2204V25.9865H90.2539V24.2204H83.522ZM83.3558 22.6205H81.5897V29.3524H83.3558V22.6205ZM84.9557 25.9865V24.2204H78.2237V25.9865H84.9557ZM86.7217 27.7525V25.9865H79.9898V27.7525H86.7217ZM86.7217 29.5186V27.7525H79.9898V29.5186H86.7217ZM83.522 31.2847V33.0508H90.2539V31.2847H83.522ZM83.522 33.0508V34.8169H90.2539V33.0508H83.522ZM83.522 34.8169V36.583H90.2539V34.8169H83.522ZM86.888 33.217H85.1219V39.9489H86.888V33.217ZM85.1219 33.217H83.3558V39.9489H85.1219V33.217ZM86.7217 36.583V34.8169H79.9898V36.583H86.7217ZM86.7217 34.8169V33.0508H79.9898V34.8169H86.7217ZM83.3558 29.6848H81.5897V36.4168H83.3558V29.6848ZM81.5897 29.6848H79.8236V36.4168H81.5897V29.6848ZM79.8236 29.6848H78.0575V36.4168H79.8236V29.6848ZM74.6916 33.0508V34.8169H81.4235V33.0508H74.6916ZM74.6916 34.8169V36.583H81.4235V34.8169H74.6916ZM78.0575 33.217H76.2914V39.9489H78.0575V33.217ZM76.2914 33.217H74.5253V39.9489H76.2914V33.217ZM77.8913 36.583V34.8169H71.1594V36.583H77.8913ZM77.8913 34.8169V33.0508H71.1594V34.8169H77.8913ZM77.8913 33.0508V31.2847H71.1594V33.0508H77.8913ZM77.8913 31.2847V29.5186H71.1594V31.2847H77.8913ZM77.8913 29.5186V27.7525H71.1594V29.5186H77.8913ZM77.8913 27.7525V25.9865H71.1594V27.7525H77.8913ZM88.6586 22.2881H90.4247V15.5561H88.6586V22.2881ZM92.0246 20.6882V18.9221H85.2927V20.6882H92.0246ZM90.4247 22.2881H92.1908V15.5561H90.4247V22.2881ZM88.8249 22.4543V24.2204H95.5568V22.4543H88.8249ZM88.8249 24.2204V25.9865H95.5568V24.2204H88.8249ZM92.0246 25.9865V24.2204H85.2927V25.9865H92.0246ZM92.0246 24.2204V22.4543H85.2927V24.2204H92.0246ZM92.0246 22.4543V20.6882H85.2927V22.4543H92.0246ZM92.0246 27.7525V25.9865H85.2927V27.7525H92.0246ZM92.0246 29.5186V27.7525H85.2927V29.5186H92.0246ZM92.0246 31.2847V29.5186H85.2927V31.2847H92.0246ZM88.8249 29.5186V31.2847H95.5568V29.5186H88.8249ZM88.8249 31.2847V33.0508H95.5568V31.2847H88.8249ZM92.0246 34.8169V33.0508H85.2927V34.8169H92.0246ZM92.0246 33.0508V31.2847H85.2927V33.0508H92.0246ZM90.4247 33.217H88.6586V39.9489H90.4247V33.217ZM92.0246 36.583V34.8169H85.2927V36.583H92.0246ZM88.8249 34.8169V36.583H95.5568V34.8169H88.8249ZM92.1908 33.217H90.4247V39.9489H92.1908V33.217ZM88.8249 33.0508V34.8169H95.5568V33.0508H88.8249ZM92.1908 22.2881H93.9569V15.5561H92.1908V22.2881ZM93.9569 22.2881H95.723V15.5561H93.9569V22.2881ZM95.723 22.2881H97.4891V15.5561H95.723V22.2881ZM97.4891 22.2881H99.2552V15.5561H97.4891V22.2881ZM95.8892 18.9221V20.6882H102.621V18.9221H95.8892ZM97.4891 19.0883H95.723V25.8202H97.4891V19.0883ZM95.723 19.0883H93.9569V25.8202H95.723V19.0883ZM93.9569 19.0883H92.1908V25.8202H93.9569V19.0883ZM93.9569 26.1527H92.1908V32.8846H93.9569V26.1527ZM93.9569 29.3524H95.723V22.6205H93.9569V29.3524ZM92.1908 29.3524H93.9569V22.6205H92.1908V29.3524ZM95.723 26.1527H93.9569V32.8846H95.723V26.1527ZM95.8892 20.6882V22.4543H102.621V20.6882H95.8892ZM99.2552 19.0883H97.4891V25.8202H99.2552V19.0883ZM95.723 29.3524H97.4891V22.6205H95.723V29.3524ZM94.1231 25.9865V27.7525H100.855V25.9865H94.1231ZM94.1231 27.7525V29.5186H100.855V27.7525H94.1231ZM97.4891 26.1527H95.723V32.8846H97.4891V26.1527ZM101.021 22.2881H102.787V15.5561H101.021V22.2881ZM104.387 20.6882V18.9221H97.6553V20.6882H104.387ZM102.787 22.2881H104.553V15.5561H102.787V22.2881ZM104.553 22.2881H106.32V15.5561H104.553V22.2881ZM106.32 22.2881H108.086V15.5561H106.32V22.2881ZM108.086 22.2881H109.852V15.5561H108.086V22.2881ZM109.852 22.2881H111.618V15.5561H109.852V22.2881ZM108.252 18.9221V20.6882H114.984V18.9221H108.252ZM108.252 20.6882V22.4543H114.984V20.6882H108.252ZM111.618 19.0883H109.852V25.8202H111.618V19.0883ZM109.852 19.0883H108.086V25.8202H109.852V19.0883ZM104.553 19.0883H102.787V25.8202H104.553V19.0883ZM102.787 19.0883H101.021V25.8202H102.787V19.0883ZM104.387 22.4543V20.6882H97.6553V22.4543H104.387ZM107.919 24.2204V22.4543H101.187V24.2204H107.919ZM107.919 25.9865V24.2204H101.187V25.9865H107.919ZM107.919 27.7525V25.9865H101.187V27.7525H107.919ZM107.919 29.5186V27.7525H101.187V29.5186H107.919ZM107.919 31.2847V29.5186H101.187V31.2847H107.919ZM107.919 33.0508V31.2847H101.187V33.0508H107.919ZM104.72 29.5186V31.2847H111.452V29.5186H104.72ZM104.72 27.7525V29.5186H111.452V27.7525H104.72ZM104.72 25.9865V27.7525H111.452V25.9865H104.72ZM104.72 24.2204V25.9865H111.452V24.2204H104.72ZM104.72 22.4543V24.2204H111.452V22.4543H104.72ZM104.72 31.2847V33.0508H111.452V31.2847H104.72ZM104.72 33.0508V34.8169H111.452V33.0508H104.72ZM104.72 34.8169V36.583H111.452V34.8169H104.72ZM108.086 33.217H106.32V39.9489H108.086V33.217ZM106.32 33.217H104.553V39.9489H106.32V33.217ZM107.919 36.583V34.8169H101.187V36.583H107.919ZM107.919 34.8169V33.0508H101.187V34.8169H107.919Z" fill="white" mask="url(#path-3-outside-1_23_451)"/>
<path d="M9.61704 36.8656C9.61704 37.747 8.89528 38.4687 8.01436 38.4687H1.60316C0.721758 38.4687 0 37.747 0 36.8656V30.4544C0 29.573 0.721758 28.8517 1.60316 28.8517H8.01436C8.89528 28.8517 9.61704 29.573 9.61704 30.4544V36.8656Z" fill="url(#paint0_linear_23_451)"/>
<path d="M22.4395 36.8656C22.4395 37.747 21.7177 38.4687 20.8368 38.4687H14.4256C13.5442 38.4687 12.8224 37.747 12.8224 36.8656V30.4544C12.8224 29.573 13.5442 28.8517 14.4256 28.8517H20.8368C21.7177 28.8517 22.4395 29.573 22.4395 30.4544V36.8656Z" fill="url(#paint1_linear_23_451)"/>
<path d="M35.2618 36.8656C35.2618 37.747 34.5401 38.4687 33.6591 38.4687H27.2479C26.3665 38.4687 25.6448 37.747 25.6448 36.8656V30.4544C25.6448 29.573 26.3665 28.8517 27.2479 28.8517H33.6591C34.5401 28.8517 35.2618 29.573 35.2618 30.4544V36.8656Z" fill="url(#paint2_linear_23_451)"/>
<path d="M9.61704 24.0432C9.61704 24.9246 8.89528 25.6459 8.01436 25.6459H1.60316C0.721758 25.6459 0 24.9246 0 24.0432V17.632C0 16.7506 0.721758 16.0293 1.60316 16.0293H8.01436C8.89528 16.0293 9.61704 16.7506 9.61704 17.632V24.0432Z" fill="url(#paint3_linear_23_451)"/>
<path d="M22.4395 24.0432C22.4395 24.9246 21.7177 25.6459 20.8368 25.6459H14.4256C13.5442 25.6459 12.8224 24.9246 12.8224 24.0432V17.632C12.8224 16.7506 13.5442 16.0293 14.4256 16.0293H20.8368C21.7177 16.0293 22.4395 16.7506 22.4395 17.632V24.0432Z" fill="url(#paint4_linear_23_451)"/>
<path d="M30.9356 26.5071C30.1201 26.8432 29.1781 26.4537 28.8415 25.6396L26.3872 19.717C26.0511 18.9034 26.4406 17.9609 27.2547 17.6229L33.1788 15.1681C33.9924 14.8301 34.9344 15.2215 35.2714 16.0356L37.7257 21.9602C38.0618 22.7738 37.6723 23.7158 36.8583 24.0528L30.9356 26.5071Z" fill="url(#paint5_linear_23_451)"/>
<path d="M9.61704 11.2208C9.61704 12.1022 8.89528 12.8235 8.01436 12.8235H1.60316C0.721758 12.8235 0 12.1022 0 11.2208V4.80959C0 3.92819 0.721758 3.20691 1.60316 3.20691H8.01436C8.89528 3.20691 9.61704 3.92819 9.61704 4.80959V11.2208Z" fill="url(#paint6_linear_23_451)"/>
<path d="M20.8463 12.8172C20.5097 13.6308 19.5658 14.0222 18.7522 13.6847L12.8291 11.2304C12.015 10.8938 11.6236 9.9499 11.9616 9.1363L14.4145 3.21365C14.7525 2.40004 15.695 2.00815 16.5086 2.34619L22.4332 4.80046C23.2468 5.13705 23.6367 6.08097 23.3001 6.89457L20.8463 12.8172Z" fill="url(#paint7_linear_23_451)"/>
<path d="M38.0008 5.00194C38.624 5.62512 38.624 6.64549 38.0008 7.26868L33.4678 11.8031C32.8451 12.4263 31.8243 12.4263 31.2015 11.8031L26.6681 7.26868C26.0454 6.64549 26.0454 5.62512 26.6681 5.00194L31.2015 0.467027C31.8243 -0.155676 32.8451 -0.155676 33.4678 0.467027L38.0008 5.00194Z" fill="#F0A519"/>
<defs>
<linearGradient id="paint0_linear_23_451" x1="4.80852" y1="28.8517" x2="4.80852" y2="38.4687" gradientUnits="userSpaceOnUse">
<stop stop-color="#717171"/>
<stop offset="1" stop-color="#494949"/>
</linearGradient>
<linearGradient id="paint1_linear_23_451" x1="17.631" y1="28.8517" x2="17.631" y2="38.4687" gradientUnits="userSpaceOnUse">
<stop stop-color="#717171"/>
<stop offset="1" stop-color="#494949"/>
</linearGradient>
<linearGradient id="paint2_linear_23_451" x1="30.4533" y1="28.8517" x2="30.4533" y2="38.4687" gradientUnits="userSpaceOnUse">
<stop stop-color="#717171"/>
<stop offset="1" stop-color="#494949"/>
</linearGradient>
<linearGradient id="paint3_linear_23_451" x1="4.80852" y1="16.0293" x2="4.80852" y2="25.6459" gradientUnits="userSpaceOnUse">
<stop stop-color="#717171"/>
<stop offset="1" stop-color="#494949"/>
</linearGradient>
<linearGradient id="paint4_linear_23_451" x1="17.631" y1="16.0293" x2="17.631" y2="25.6459" gradientUnits="userSpaceOnUse">
<stop stop-color="#717171"/>
<stop offset="1" stop-color="#494949"/>
</linearGradient>
<linearGradient id="paint5_linear_23_451" x1="32.0565" y1="15.0465" x2="32.0565" y2="26.6279" gradientUnits="userSpaceOnUse">
<stop stop-color="#6DB13D"/>
<stop offset="1" stop-color="#83E83D"/>
</linearGradient>
<linearGradient id="paint6_linear_23_451" x1="4.80852" y1="3.20691" x2="4.80852" y2="12.8235" gradientUnits="userSpaceOnUse">
<stop stop-color="#717171"/>
<stop offset="1" stop-color="#494949"/>
</linearGradient>
<linearGradient id="paint7_linear_23_451" x1="17.6306" y1="2.22464" x2="17.6306" y2="13.806" gradientUnits="userSpaceOnUse">
<stop stop-color="#6DB13D"/>
<stop offset="1" stop-color="#83E83D"/>
</linearGradient>
</defs>
</svg>
