<svg width="390" height="72" viewBox="0 0 390 72" fill="none" xmlns="http://www.w3.org/2000/svg">
<g clip-path="url(#clip0_87_1531)">
<mask id="mask0_87_1531" style="mask-type:luminance" maskUnits="userSpaceOnUse" x="175" y="47" width="13" height="11">
<path d="M187.902 54.1399L179.183 47L175 50.7955L183.706 58L187.902 54.1399Z" fill="white"/>
</mask>
<g mask="url(#mask0_87_1531)">
<path d="M187.902 54.1399L179.183 47L175 50.7955L183.706 58L187.902 54.1399Z" fill="url(#paint0_linear_87_1531)"/>
</g>
<mask id="mask1_87_1531" style="mask-type:luminance" maskUnits="userSpaceOnUse" x="62" y="16" width="20" height="17">
<path d="M62.4111 16.273C63.1369 24.8562 71.3929 36.7362 81.3018 31.1416C73.8686 30.9686 71.1329 23.745 66.9572 19.983C64.7438 18.4127 62.4111 16.273 62.4111 16.273Z" fill="white"/>
</mask>
<g mask="url(#mask1_87_1531)">
<path d="M62.4111 16.273C63.1369 24.8562 71.3929 36.7362 81.3018 31.1416C73.8686 30.9686 71.1329 23.745 66.9572 19.983C64.7438 18.4127 62.4111 16.273 62.4111 16.273Z" fill="url(#paint1_linear_87_1531)"/>
</g>
<mask id="mask2_87_1531" style="mask-type:luminance" maskUnits="userSpaceOnUse" x="208" y="22" width="23" height="12">
<path d="M224.026 22.2581C219.214 21.2767 213.702 26.7997 208.568 25.851C212.38 38.4047 221.126 33.0702 230.076 30.5141L224.026 22.2581Z" fill="white"/>
</mask>
<g mask="url(#mask2_87_1531)">
<path d="M224.026 22.2581C219.214 21.2767 213.702 26.7997 208.568 25.851C212.38 38.4047 221.126 33.0702 230.076 30.5141L224.026 22.2581Z" fill="url(#paint2_linear_87_1531)"/>
</g>
<mask id="mask3_87_1531" style="mask-type:luminance" maskUnits="userSpaceOnUse" x="381" y="24" width="14" height="5">
<path d="M394.92 27.559C391.119 23.9877 383.014 22.0337 381.4 28.6291C384.4 25.6422 388.437 27.7736 391.606 27.7542C393.122 27.5485 394.92 27.559 394.92 27.559Z" fill="white"/>
</mask>
<g mask="url(#mask3_87_1531)">
<path d="M394.92 27.559C391.119 23.9877 383.014 22.0337 381.4 28.6291C384.4 25.6422 388.437 27.7736 391.606 27.7542C393.122 27.5485 394.92 27.559 394.92 27.559Z" fill="url(#paint3_linear_87_1531)"/>
</g>
<mask id="mask4_87_1531" style="mask-type:luminance" maskUnits="userSpaceOnUse" x="139" y="34" width="10" height="9">
<path d="M148.44 41.3492L145.96 34.4095L139.225 35.8739L141.65 42.8629L148.44 41.3492Z" fill="white"/>
</mask>
<g mask="url(#mask4_87_1531)">
<path d="M148.44 41.3492L145.96 34.4095L139.225 35.8739L141.65 42.8629L148.44 41.3492Z" fill="url(#paint4_linear_87_1531)"/>
</g>
<mask id="mask5_87_1531" style="mask-type:luminance" maskUnits="userSpaceOnUse" x="102" y="23" width="11" height="10">
<path d="M112.167 30.6807L109.687 23.741L102.951 25.2053L105.377 32.1944L112.167 30.6807Z" fill="white"/>
</mask>
<g mask="url(#mask5_87_1531)">
<path d="M112.167 30.6807L109.687 23.741L102.951 25.2053L105.377 32.1944L112.167 30.6807Z" fill="url(#paint5_linear_87_1531)"/>
</g>
<mask id="mask6_87_1531" style="mask-type:luminance" maskUnits="userSpaceOnUse" x="299" y="-4" width="7" height="12">
<path d="M300.19 6.66964C299.666 5.5973 299.112 4.48837 299.287 3.29072C299.449 2.18179 300.288 1.32624 300.985 0.600998C301.825 -0.271732 302.644 -1.09955 303.196 -2.26449C303.424 -2.75186 303.612 -3.35845 303.569 -3.99719L304.727 -3.0984L304.842 -2.91875C305.771 -1.49599 304.868 -0.00558472 304.266 0.847739C303.428 2.04095 302.222 2.78172 301.301 3.87125C300.894 4.34143 300.595 4.89368 300.454 5.53243L300.439 6.55043L300.565 7.13539L300.66 7.6832L300.19 6.66964Z" fill="white"/>
</mask>
<g mask="url(#mask6_87_1531)">
<path d="M300.19 6.66964C299.666 5.5973 299.112 4.48837 299.287 3.29072C299.449 2.18179 300.288 1.32624 300.985 0.600998C301.825 -0.271732 302.644 -1.09955 303.196 -2.26449C303.424 -2.75186 303.612 -3.35845 303.569 -3.99719L304.727 -3.0984L304.842 -2.91875C305.771 -1.49599 304.868 -0.00558472 304.266 0.847739C303.428 2.04095 302.222 2.78172 301.301 3.87125C300.894 4.34143 300.595 4.89368 300.454 5.53243L300.439 6.55043L300.565 7.13539L300.66 7.6832L300.19 6.66964Z" fill="url(#paint6_linear_87_1531)"/>
</g>
<mask id="mask7_87_1531" style="mask-type:luminance" maskUnits="userSpaceOnUse" x="300" y="7" width="11" height="9">
<path d="M310.218 14.3912L310.239 14.4777L310.25 14.5426L310.218 14.3912ZM300.66 7.68329C301.088 8.61923 301.528 9.56126 302.262 10.2715C303.204 11.192 304.294 11.6793 305.464 12.1279C306.395 12.4961 307.363 12.6757 308.296 13.0916L309.665 13.9366L310.347 15.0255L310.326 14.9069L310.201 14.2027C310.044 13.4165 309.914 12.2471 309.412 11.6361C308.972 11.1055 308.424 10.7916 307.872 10.5682C306.618 10.0658 305.327 9.92943 304.078 9.5025C302.762 9.05227 301.468 8.36972 300.591 7.21754L300.564 7.13547L300.66 7.68329Z" fill="white"/>
</mask>
<g mask="url(#mask7_87_1531)">
<path d="M310.218 14.3912L310.239 14.4777L310.25 14.5426L310.218 14.3912ZM300.66 7.68329C301.088 8.61923 301.528 9.56126 302.262 10.2715C303.204 11.192 304.294 11.6793 305.464 12.1279C306.395 12.4961 307.363 12.6757 308.296 13.0916L309.665 13.9366L310.347 15.0255L310.326 14.9069L310.201 14.2027C310.044 13.4165 309.914 12.2471 309.412 11.6361C308.972 11.1055 308.424 10.7916 307.872 10.5682C306.618 10.0658 305.327 9.92943 304.078 9.5025C302.762 9.05227 301.468 8.36972 300.591 7.21754L300.564 7.13547L300.66 7.68329Z" fill="url(#paint7_linear_87_1531)"/>
</g>
<mask id="mask8_87_1531" style="mask-type:luminance" maskUnits="userSpaceOnUse" x="305" y="13" width="6" height="8">
<path d="M306.06 20.5424C306.017 19.9464 306.013 19.3359 305.963 18.8375C305.631 16.059 308.811 15.9614 309.666 13.9365L310.348 15.0255L310.277 16.3623C310.136 16.9534 309.716 17.3582 309.342 17.6725C308.486 18.3939 307.457 18.7726 306.677 19.6176L306.483 19.8666L306.06 20.5424Z" fill="white"/>
</mask>
<g mask="url(#mask8_87_1531)">
<path d="M306.06 20.5424C306.017 19.9464 306.013 19.3359 305.963 18.8375C305.631 16.059 308.811 15.9614 309.666 13.9365L310.348 15.0255L310.277 16.3623C310.136 16.9534 309.716 17.3582 309.342 17.6725C308.486 18.3939 307.457 18.7726 306.677 19.6176L306.483 19.8666L306.06 20.5424Z" fill="url(#paint8_linear_87_1531)"/>
</g>
<mask id="mask9_87_1531" style="mask-type:luminance" maskUnits="userSpaceOnUse" x="306" y="19" width="4" height="8">
<path d="M306.482 19.8665L306.947 20.4121C307.723 21.2094 308.728 21.5665 309.464 22.4547C310.201 23.3424 309.925 25.4045 309.807 26.6066L309.59 25.6102L309.102 24.9127L307.623 23.6457C307.095 23.1955 306.644 22.6605 306.341 21.9607C306.168 21.556 306.096 21.0575 306.06 20.5424L306.482 19.8665Z" fill="white"/>
</mask>
<g mask="url(#mask9_87_1531)">
<path d="M306.482 19.8665L306.947 20.4121C307.723 21.2094 308.728 21.5665 309.464 22.4547C310.201 23.3424 309.925 25.4045 309.807 26.6066L309.59 25.6102L309.102 24.9127L307.623 23.6457C307.095 23.1955 306.644 22.6605 306.341 21.9607C306.168 21.556 306.096 21.0575 306.06 20.5424L306.482 19.8665Z" fill="url(#paint9_linear_87_1531)"/>
</g>
<mask id="mask10_87_1531" style="mask-type:luminance" maskUnits="userSpaceOnUse" x="257" y="-3" width="6" height="12">
<path d="M262.316 8.04612L262.294 8.1304L262.277 8.19528L262.316 8.04612ZM257.068 -2.3917C257.003 -1.36483 256.944 -0.325214 257.258 0.64732C257.653 1.90319 258.378 2.84801 259.197 3.79836C259.84 4.56297 260.609 5.17842 261.237 5.98849C261.529 6.37163 261.861 6.83739 262.038 7.37855L262.121 8.65659L262.168 8.54847L262.392 7.86593C262.623 7.10354 263.067 6.01235 262.905 5.23221C262.775 4.55853 262.439 4.0218 262.056 3.56492C261.189 2.52529 260.117 1.79729 259.219 0.82697C258.27 -0.191031 257.458 -1.40366 257.23 -2.83529L257.241 -2.92013L257.068 -2.3917Z" fill="white"/>
</mask>
<g mask="url(#mask10_87_1531)">
<path d="M262.316 8.04612L262.294 8.1304L262.277 8.19528L262.316 8.04612ZM257.068 -2.3917C257.003 -1.36483 256.944 -0.325214 257.258 0.64732C257.653 1.90319 258.378 2.84801 259.197 3.79836C259.84 4.56297 260.609 5.17842 261.237 5.98849C261.529 6.37163 261.861 6.83739 262.038 7.37855L262.121 8.65659L262.168 8.54847L262.392 7.86593C262.623 7.10354 263.067 6.01235 262.905 5.23221C262.775 4.55853 262.439 4.0218 262.056 3.56492C261.189 2.52529 260.117 1.79729 259.219 0.82697C258.27 -0.191031 257.458 -1.40366 257.23 -2.83529L257.241 -2.92013L257.068 -2.3917Z" fill="url(#paint10_linear_87_1531)"/>
</g>
<mask id="mask11_87_1531" style="mask-type:luminance" maskUnits="userSpaceOnUse" x="255" y="7" width="8" height="5">
<path d="M255.734 11.4916C255.979 10.9482 256.265 10.4043 256.46 9.94297C257.484 7.33975 260.326 8.75863 262.037 7.37856L262.119 8.6566L261.431 9.80435L259.99 10.5191C258.897 10.7508 257.803 10.5928 256.72 10.9698L256.427 11.0935L255.734 11.4916Z" fill="white"/>
</mask>
<g mask="url(#mask11_87_1531)">
<path d="M255.734 11.4916C255.979 10.9482 256.265 10.4043 256.46 9.94297C257.484 7.33975 260.326 8.75863 262.037 7.37856L262.119 8.6566L261.431 9.80435L259.99 10.5191C258.897 10.7508 257.803 10.5928 256.72 10.9698L256.427 11.0935L255.734 11.4916Z" fill="url(#paint11_linear_87_1531)"/>
</g>
<mask id="mask12_87_1531" style="mask-type:luminance" maskUnits="userSpaceOnUse" x="255" y="11" width="3" height="8">
<path d="M256.427 11.0934L256.578 11.797C256.888 12.8649 257.603 13.6578 257.83 14.7861C258.058 15.9189 256.838 17.6061 256.162 18.6047L256.448 17.6278L256.347 16.7828C256.188 16.129 255.874 15.5635 255.647 14.9658C255.394 14.3181 255.246 13.6339 255.311 12.8754L255.734 11.4915L256.427 11.0934Z" fill="white"/>
</mask>
<g mask="url(#mask12_87_1531)">
<path d="M256.427 11.0934L256.578 11.797C256.888 12.8649 257.603 13.6578 257.83 14.7861C258.058 15.9189 256.838 17.6061 256.162 18.6047L256.448 17.6278L256.347 16.7828C256.188 16.129 255.874 15.5635 255.647 14.9658C255.394 14.3181 255.246 13.6339 255.311 12.8754L255.734 11.4915L256.427 11.0934Z" fill="url(#paint12_linear_87_1531)"/>
</g>
<mask id="mask13_87_1531" style="mask-type:luminance" maskUnits="userSpaceOnUse" x="244" y="17" width="13" height="5">
<path d="M246.049 18.8753C248.063 18.8426 249.958 19.356 252.005 19.3172C253.38 19.2867 255.128 18.78 256.449 17.6278L256.439 17.7509L256.326 18.256L256.163 18.6047C255.334 19.7392 254.294 20.4822 253.049 20.9978C249.898 22.2559 247.147 20.7533 244.31 20.6513L245.193 19.7652L246.049 18.8753Z" fill="white"/>
</mask>
<g mask="url(#mask13_87_1531)">
<path d="M246.049 18.8753C248.063 18.8426 249.958 19.356 252.005 19.3172C253.38 19.2867 255.128 18.78 256.449 17.6278L256.439 17.7509L256.326 18.256L256.163 18.6047C255.334 19.7392 254.294 20.4822 253.049 20.9978C249.898 22.2559 247.147 20.7533 244.31 20.6513L245.193 19.7652L246.049 18.8753Z" fill="url(#paint13_linear_87_1531)"/>
</g>
<mask id="mask14_87_1531" style="mask-type:luminance" maskUnits="userSpaceOnUse" x="338" y="17" width="15" height="3">
<path d="M351.309 19.1297L351.241 19.1154L349.91 18.8816C348.735 18.7836 347.61 18.9129 346.523 19.0873C344.28 19.4319 341.968 20.2704 339.622 19.4161L338.364 18.8776L338.19 18.6138L338.225 18.6387C338.401 18.7766 339.378 18.5693 340.233 18.4792C341.685 18.3064 343.078 17.7874 344.498 17.4792C345.852 17.1857 347.296 16.9442 348.839 17.1981C350.302 17.4434 351.518 18.6598 352.615 19.7997C352.118 19.4368 351.591 19.2292 351.307 19.1372L351.309 19.1297Z" fill="white"/>
</mask>
<g mask="url(#mask14_87_1531)">
<path d="M351.309 19.1297L351.241 19.1154L349.91 18.8816C348.735 18.7836 347.61 18.9129 346.523 19.0873C344.28 19.4319 341.968 20.2704 339.622 19.4161L338.364 18.8776L338.19 18.6138L338.225 18.6387C338.401 18.7766 339.378 18.5693 340.233 18.4792C341.685 18.3064 343.078 17.7874 344.498 17.4792C345.852 17.1857 347.296 16.9442 348.839 17.1981C350.302 17.4434 351.518 18.6598 352.615 19.7997C352.118 19.4368 351.591 19.2292 351.307 19.1372L351.309 19.1297Z" fill="url(#paint14_linear_87_1531)"/>
</g>
<mask id="mask15_87_1531" style="mask-type:luminance" maskUnits="userSpaceOnUse" x="348" y="19" width="6" height="13">
<path d="M350.016 30.2522C349.301 29.2957 348.548 28.3143 348.492 27.1048C348.438 25.9863 349.098 24.9863 349.644 24.1415C350.305 23.1248 350.953 22.1547 351.271 20.9109C351.403 20.3871 351.475 19.7554 351.306 19.1378C351.591 19.2298 352.118 19.4374 352.615 19.8003L352.762 19.9522C353.946 21.1748 353.344 22.8083 352.913 23.7637C352.319 25.0904 351.271 26.0507 350.577 27.2905C350.266 27.8345 350.08 28.4282 350.063 29.0824L350.239 30.0869L350.471 30.6384L350.671 31.1574L350.016 30.2522Z" fill="white"/>
</mask>
<g mask="url(#mask15_87_1531)">
<path d="M350.016 30.2522C349.301 29.2957 348.548 28.3143 348.492 27.1048C348.438 25.9863 349.098 24.9863 349.644 24.1415C350.305 23.1248 350.953 22.1547 351.271 20.9109C351.403 20.3871 351.475 19.7554 351.306 19.1378C351.591 19.2298 352.118 19.4374 352.615 19.8003L352.762 19.9522C353.946 21.1748 353.344 22.8083 352.913 23.7637C352.319 25.0904 351.271 26.0507 350.577 27.2905C350.266 27.8345 350.08 28.4282 350.063 29.0824L350.239 30.0869L350.471 30.6384L350.671 31.1574L350.016 30.2522Z" fill="url(#paint15_linear_87_1531)"/>
</g>
<mask id="mask16_87_1531" style="mask-type:luminance" maskUnits="userSpaceOnUse" x="350" y="30" width="12" height="7">
<path d="M361.337 35.927L361.373 36.006L361.401 36.0672L361.337 35.927ZM350.673 31.1555C351.272 31.9923 351.883 32.8349 352.741 33.39C353.841 34.1141 355 34.3877 356.235 34.6066C357.217 34.7925 358.202 34.7835 359.201 35.0142C359.669 35.1264 360.221 35.2778 360.7 35.5849L361.572 36.5233L361.54 36.4094L361.282 35.7395C360.98 35.0022 360.634 33.876 360.015 33.3741C359.488 32.9342 358.889 32.7304 358.303 32.6187C356.975 32.3606 355.684 32.4741 354.374 32.2903C352.995 32.1011 351.6 31.6747 350.518 30.7091L350.473 30.6365L350.673 31.1555Z" fill="white"/>
</mask>
<g mask="url(#mask16_87_1531)">
<path d="M361.337 35.927L361.373 36.006L361.401 36.0672L361.337 35.927ZM350.673 31.1555C351.272 31.9923 351.883 32.8349 352.741 33.39C353.841 34.1141 355 34.3877 356.235 34.6066C357.217 34.7925 358.202 34.7835 359.201 35.0142C359.669 35.1264 360.221 35.2778 360.7 35.5849L361.572 36.5233L361.54 36.4094L361.282 35.7395C360.98 35.0022 360.634 33.876 360.015 33.3741C359.488 32.9342 358.889 32.7304 358.303 32.6187C356.975 32.3606 355.684 32.4741 354.374 32.2903C352.995 32.1011 351.6 31.6747 350.518 30.7091L350.473 30.6365L350.673 31.1555Z" fill="url(#paint16_linear_87_1531)"/>
</g>
<mask id="mask17_87_1531" style="mask-type:luminance" maskUnits="userSpaceOnUse" x="357" y="35" width="5" height="8">
<path d="M358.414 42.7578C358.26 42.182 358.138 41.5798 357.998 41.0991C357.146 38.4343 360.245 37.7377 360.699 35.5868L361.57 36.5252L361.762 37.8499L361.097 39.3141C360.396 40.185 359.449 40.7539 358.848 41.7305L358.7 42.0112L358.414 42.7578Z" fill="white"/>
</mask>
<g mask="url(#mask17_87_1531)">
<path d="M358.414 42.7578C358.26 42.182 358.138 41.5798 357.998 41.0991C357.146 38.4343 360.245 37.7377 360.699 35.5868L361.57 36.5252L361.762 37.8499L361.097 39.3141C360.396 40.185 359.449 40.7539 358.848 41.7305L358.7 42.0112L358.414 42.7578Z" fill="url(#paint17_linear_87_1531)"/>
</g>
<mask id="mask18_87_1531" style="mask-type:luminance" maskUnits="userSpaceOnUse" x="358" y="42" width="6" height="6">
<path d="M358.699 42.011L359.261 42.4604C360.176 43.0922 361.231 43.2549 362.121 43.9855C363.013 44.7196 363.134 46.7978 363.242 47.9988L362.846 47.061L362.233 46.4705C361.697 46.0639 361.096 45.8241 360.542 45.5047C359.937 45.163 359.39 44.7259 358.961 44.097L358.414 42.7576L358.699 42.011Z" fill="white"/>
</mask>
<g mask="url(#mask18_87_1531)">
<path d="M358.699 42.011L359.261 42.4604C360.176 43.0922 361.231 43.2549 362.121 43.9855C363.013 44.7196 363.134 46.7978 363.242 47.9988L362.846 47.061L362.233 46.4705C361.697 46.0639 361.096 45.8241 360.542 45.5047C359.937 45.163 359.39 44.7259 358.961 44.097L358.414 42.7576L358.699 42.011Z" fill="url(#paint18_linear_87_1531)"/>
</g>
<mask id="mask19_87_1531" style="mask-type:luminance" maskUnits="userSpaceOnUse" x="355" y="47" width="9" height="11">
<path d="M355.575 54.6005C357.115 53.302 358.909 52.502 360.47 51.1783C361.517 50.2854 362.551 48.7879 362.846 47.06L362.916 47.1622L363.148 47.6249L363.242 47.9978C363.317 49.4012 362.981 50.6341 362.341 51.8208C360.694 54.7876 357.613 55.3617 355.35 57.076L355.475 55.8309L355.575 54.6005Z" fill="white"/>
</mask>
<g mask="url(#mask19_87_1531)">
<path d="M355.575 54.6005C357.115 53.302 358.909 52.502 360.47 51.1783C361.517 50.2854 362.551 48.7879 362.846 47.06L362.916 47.1622L363.148 47.6249L363.242 47.9978C363.317 49.4012 362.981 50.6341 362.341 51.8208C360.694 54.7876 357.613 55.3617 355.35 57.076L355.475 55.8309L355.575 54.6005Z" fill="url(#paint19_linear_87_1531)"/>
</g>
<mask id="mask20_87_1531" style="mask-type:luminance" maskUnits="userSpaceOnUse" x="184" y="-4" width="4" height="12">
<path d="M187.076 6.12846L187.065 6.07857L186.881 5.09327C186.643 4.22054 186.275 3.38662 185.907 2.55936C185.159 0.876551 184.087 -0.988667 184.683 -2.88162L185.095 -3.87356L185.322 -3.9972L185.3 -3.96671C185.181 -3.83641 185.393 -3.02855 185.538 -2.34656C185.783 -1.17885 186.39 -0.074357 186.871 1.00852C187.325 2.04592 187.798 3.11992 187.953 4.24882C188.105 5.3206 187.488 6.23714 186.957 7.12484L187.076 6.12846Z" fill="white"/>
</mask>
<g mask="url(#mask20_87_1531)">
<path d="M187.076 6.12846L187.065 6.07857L186.881 5.09327C186.643 4.22054 186.275 3.38662 185.907 2.55936C185.159 0.876551 184.087 -0.988667 184.683 -2.88162L185.095 -3.87356L185.322 -3.9972L185.3 -3.96671C185.181 -3.83641 185.393 -3.02855 185.538 -2.34656C185.783 -1.17885 186.39 -0.074357 186.871 1.00852C187.325 2.04592 187.798 3.11992 187.953 4.24882C188.105 5.3206 187.488 6.23714 186.957 7.12484L187.076 6.12846Z" fill="url(#paint20_linear_87_1531)"/>
</g>
<mask id="mask21_87_1531" style="mask-type:luminance" maskUnits="userSpaceOnUse" x="177" y="4" width="11" height="4">
<path d="M177.926 7.11421C178.381 6.26255 178.912 5.39649 179.876 5.0821C180.764 4.7899 181.775 5.1431 182.616 5.42865C183.634 5.77519 184.597 6.13281 185.67 6.24759L187.077 6.12838L186.958 7.12475L186.893 7.24839C186.341 8.20097 184.907 7.98029 184.017 7.82227C182.789 7.60104 181.667 7.00555 180.445 6.74994C179.915 6.64182 179.371 6.64181 178.854 6.81092L178.143 7.23288L177.807 7.58385L177.489 7.90434L177.926 7.11421Z" fill="white"/>
</mask>
<g mask="url(#mask21_87_1531)">
<path d="M177.926 7.11421C178.381 6.26255 178.912 5.39649 179.876 5.0821C180.764 4.7899 181.775 5.1431 182.616 5.42865C183.634 5.77519 184.597 6.13281 185.67 6.24759L187.077 6.12838L186.958 7.12475L186.893 7.24839C186.341 8.20097 184.907 7.98029 184.017 7.82227C182.789 7.60104 181.667 7.00555 180.445 6.74994C179.915 6.64182 179.371 6.64181 178.854 6.81092L178.143 7.23288L177.807 7.58385L177.489 7.90434L177.926 7.11421Z" fill="url(#paint21_linear_87_1531)"/>
</g>
<mask id="mask22_87_1531" style="mask-type:luminance" maskUnits="userSpaceOnUse" x="176" y="7" width="5" height="11">
<path d="M179.778 17.0231L179.752 17.0769L179.73 17.114L179.778 17.0231ZM177.488 7.90434C177.092 8.63457 176.735 9.40306 176.745 10.2436C176.752 11.3198 177.168 12.2469 177.683 13.1718C178.095 13.9148 178.652 14.569 179.074 15.3054L179.604 16.4925L179.572 17.4018L179.615 17.3369L179.854 16.9189C180.103 16.4487 180.586 15.8315 180.557 15.2621L180.109 13.8649C179.568 12.8862 178.831 12.024 178.322 11.0232C177.785 9.97749 177.46 8.7815 177.763 7.63819L177.807 7.58386L177.488 7.90434Z" fill="white"/>
</mask>
<g mask="url(#mask22_87_1531)">
<path d="M179.778 17.0231L179.752 17.0769L179.73 17.114L179.778 17.0231ZM177.488 7.90434C177.092 8.63457 176.735 9.40306 176.745 10.2436C176.752 11.3198 177.168 12.2469 177.683 13.1718C178.095 13.9148 178.652 14.569 179.074 15.3054L179.604 16.4925L179.572 17.4018L179.615 17.3369L179.854 16.9189C180.103 16.4487 180.586 15.8315 180.557 15.2621L180.109 13.8649C179.568 12.8862 178.831 12.024 178.322 11.0232C177.785 9.97749 177.46 8.7815 177.763 7.63819L177.807 7.58386L177.488 7.90434Z" fill="url(#paint22_linear_87_1531)"/>
</g>
<mask id="mask23_87_1531" style="mask-type:luminance" maskUnits="userSpaceOnUse" x="174" y="16" width="6" height="3">
<path d="M174.083 18.29L174.722 17.1961C175.729 15.3597 178.079 17.0269 179.606 16.4924L179.574 17.4018L178.935 18.0411L177.7 18.2507C176.775 18.2035 175.86 17.9002 174.928 18.0194L174.679 18.0777L174.083 18.29Z" fill="white"/>
</mask>
<g mask="url(#mask23_87_1531)">
<path d="M174.083 18.29L174.722 17.1961C175.729 15.3597 178.079 17.0269 179.606 16.4924L179.574 17.4018L178.935 18.0411L177.7 18.2507C176.775 18.2035 175.86 17.9002 174.928 18.0194L174.679 18.0777L174.083 18.29Z" fill="url(#paint23_linear_87_1531)"/>
</g>
<mask id="mask24_87_1531" style="mask-type:luminance" maskUnits="userSpaceOnUse" x="173" y="18" width="4" height="6">
<path d="M174.677 18.0777L174.807 18.6366C175.082 19.4855 175.728 20.1681 175.998 21.023C176.269 21.868 175.457 22.9725 175.078 23.6723L175.154 22.9792L174.963 22.3443L174.179 20.9365C173.908 20.4275 173.735 19.8864 173.756 19.3081L174.081 18.2901L174.677 18.0777Z" fill="white"/>
</mask>
<g mask="url(#mask24_87_1531)">
<path d="M174.677 18.0777L174.807 18.6366C175.082 19.4855 175.728 20.1681 175.998 21.023C176.269 21.868 175.457 22.9725 175.078 23.6723L175.154 22.9792L174.963 22.3443L174.179 20.9365C173.908 20.4275 173.735 19.8864 173.756 19.3081L174.081 18.2901L174.677 18.0777Z" fill="url(#paint24_linear_87_1531)"/>
</g>
<mask id="mask25_87_1531" style="mask-type:luminance" maskUnits="userSpaceOnUse" x="165" y="22" width="11" height="4">
<path d="M165.896 25.94L166.335 25.0906L166.795 24.2505C168.451 23.9472 170.119 24.2134 171.793 24.1269C172.913 24.0726 174.234 23.726 175.155 22.9791L175.166 23.0656L175.148 23.4272L175.079 23.6722C174.574 24.4518 173.898 24.9719 173.017 25.3661" fill="white"/>
</mask>
<g mask="url(#mask25_87_1531)">
<path d="M165.896 25.94L166.335 25.0906L166.795 24.2505C168.451 23.9472 170.119 24.2134 171.793 24.1269C172.913 24.0726 174.234 23.726 175.155 22.9791L175.166 23.0656L175.148 23.4272L175.079 23.6722C174.574 24.4518 173.898 24.9719 173.017 25.3661" fill="url(#paint25_linear_87_1531)"/>
</g>
<mask id="mask26_87_1531" style="mask-type:luminance" maskUnits="userSpaceOnUse" x="46" y="52" width="3" height="8">
<path d="M48.2597 59.0412L48.2526 59.0092L48.1346 58.3772C47.982 57.8174 47.7458 57.2824 47.5096 56.7518C47.0302 55.6723 46.3424 54.4759 46.7243 53.2616L46.9886 52.6254L47.1344 52.5461L47.1205 52.5656C47.0441 52.6492 47.1803 53.1674 47.2731 53.6049C47.4303 54.3539 47.8194 55.0624 48.1278 55.757C48.4194 56.4224 48.7225 57.1114 48.8224 57.8355C48.9195 58.523 48.5237 59.1109 48.1833 59.6803L48.2597 59.0412Z" fill="white"/>
</mask>
<g mask="url(#mask26_87_1531)">
<path d="M48.2597 59.0412L48.2526 59.0092L48.1346 58.3772C47.982 57.8174 47.7458 57.2824 47.5096 56.7518C47.0302 55.6723 46.3424 54.4759 46.7243 53.2616L46.9886 52.6254L47.1344 52.5461L47.1205 52.5656C47.0441 52.6492 47.1803 53.1674 47.2731 53.6049C47.4303 54.3539 47.8194 55.0624 48.1278 55.757C48.4194 56.4224 48.7225 57.1114 48.8224 57.8355C48.9195 58.523 48.5237 59.1109 48.1833 59.6803L48.2597 59.0412Z" fill="url(#paint26_linear_87_1531)"/>
</g>
<mask id="mask27_87_1531" style="mask-type:luminance" maskUnits="userSpaceOnUse" x="42" y="58" width="7" height="3">
<path d="M42.389 59.6735C42.6807 59.1272 43.021 58.5717 43.6395 58.37C44.209 58.1826 44.8577 58.4091 45.3969 58.5923C46.0499 58.8146 46.668 59.044 47.3559 59.1176L48.2589 59.0412L48.1825 59.6803L48.1408 59.7596C47.7866 60.3706 46.8669 60.2291 46.2957 60.1277C45.5082 59.9858 44.7883 59.6038 44.0048 59.4399C43.6644 59.3705 43.3155 59.3705 42.9837 59.479L42.5281 59.7496L42.3126 59.9748L42.1084 60.1803L42.389 59.6735Z" fill="white"/>
</mask>
<g mask="url(#mask27_87_1531)">
<path d="M42.389 59.6735C42.6807 59.1272 43.021 58.5717 43.6395 58.37C44.209 58.1826 44.8577 58.4091 45.3969 58.5923C46.0499 58.8146 46.668 59.044 47.3559 59.1176L48.2589 59.0412L48.1825 59.6803L48.1408 59.7596C47.7866 60.3706 46.8669 60.2291 46.2957 60.1277C45.5082 59.9858 44.7883 59.6038 44.0048 59.4399C43.6644 59.3705 43.3155 59.3705 42.9837 59.479L42.5281 59.7496L42.3126 59.9748L42.1084 60.1803L42.389 59.6735Z" fill="url(#paint27_linear_87_1531)"/>
</g>
<mask id="mask28_87_1531" style="mask-type:luminance" maskUnits="userSpaceOnUse" x="41" y="59" width="4" height="8">
<path d="M43.5774 66.0296L43.5606 66.0641L43.5468 66.0879L43.5774 66.0296ZM42.1088 60.1803C41.8545 60.6488 41.6255 61.1417 41.6322 61.6809C41.6365 62.3712 41.9032 62.9659 42.2337 63.5592C42.4979 64.0358 42.855 64.4554 43.1257 64.9278L43.466 65.6892L43.4454 66.2725L43.4731 66.2309L43.6261 65.9628C43.7858 65.6611 44.0956 65.2653 44.0774 64.9L43.7897 64.0037C43.4426 63.376 42.9702 62.8229 42.6437 62.181C42.2991 61.5102 42.0907 60.743 42.2852 60.0096L42.313 59.9748L42.1088 60.1803Z" fill="white"/>
</mask>
<g mask="url(#mask28_87_1531)">
<path d="M43.5774 66.0296L43.5606 66.0641L43.5468 66.0879L43.5774 66.0296ZM42.1088 60.1803C41.8545 60.6488 41.6255 61.1417 41.6322 61.6809C41.6365 62.3712 41.9032 62.9659 42.2337 63.5592C42.4979 64.0358 42.855 64.4554 43.1257 64.9278L43.466 65.6892L43.4454 66.2725L43.4731 66.2309L43.6261 65.9628C43.7858 65.6611 44.0956 65.2653 44.0774 64.9L43.7897 64.0037C43.4426 63.376 42.9702 62.8229 42.6437 62.181C42.2991 61.5102 42.0907 60.743 42.2852 60.0096L42.313 59.9748L42.1088 60.1803Z" fill="url(#paint28_linear_87_1531)"/>
</g>
<mask id="mask29_87_1531" style="mask-type:luminance" maskUnits="userSpaceOnUse" x="39" y="65" width="5" height="2">
<path d="M39.9248 66.8423L40.3349 66.1406C40.9808 64.9626 42.4881 66.0321 43.4676 65.6892L43.447 66.2725L43.0369 66.6826L42.2452 66.817C41.6519 66.7868 41.0644 66.5922 40.4668 66.6687L40.3071 66.7061L39.9248 66.8423Z" fill="white"/>
</mask>
<g mask="url(#mask29_87_1531)">
<path d="M39.9248 66.8423L40.3349 66.1406C40.9808 64.9626 42.4881 66.0321 43.4676 65.6892L43.447 66.2725L43.0369 66.6826L42.2452 66.817C41.6519 66.7868 41.0644 66.5922 40.4668 66.6687L40.3071 66.7061L39.9248 66.8423Z" fill="url(#paint29_linear_87_1531)"/>
</g>
<mask id="mask30_87_1531" style="mask-type:luminance" maskUnits="userSpaceOnUse" x="39" y="66" width="3" height="5">
<path d="M40.3058 66.7061L40.389 67.0646C40.5654 67.6091 40.9794 68.047 41.153 68.5954C41.3269 69.1374 40.8059 69.8459 40.5626 70.2948L40.6113 69.8502L40.489 69.443L39.986 68.5399C39.8125 68.2134 39.7012 67.8663 39.715 67.4953L39.9235 66.8423L40.3058 66.7061Z" fill="white"/>
</mask>
<g mask="url(#mask30_87_1531)">
<path d="M40.3058 66.7061L40.389 67.0646C40.5654 67.6091 40.9794 68.047 41.153 68.5954C41.3269 69.1374 40.8059 69.8459 40.5626 70.2948L40.6113 69.8502L40.489 69.443L39.986 68.5399C39.8125 68.2134 39.7012 67.8663 39.715 67.4953L39.9235 66.8423L40.3058 66.7061Z" fill="url(#paint30_linear_87_1531)"/>
</g>
<mask id="mask31_87_1531" style="mask-type:luminance" maskUnits="userSpaceOnUse" x="34" y="69" width="7" height="3">
<path d="M34.6729 71.7494L34.9549 71.2045L35.2494 70.6657C36.3121 70.4711 37.382 70.6419 38.4557 70.5864C39.1742 70.5515 40.0217 70.3292 40.6121 69.8502L40.6192 69.9056L40.6078 70.1375L40.5634 70.2947C40.2397 70.7948 39.8062 71.1284 39.241 71.3813" fill="white"/>
</mask>
<g mask="url(#mask31_87_1531)">
<path d="M34.6729 71.7494L34.9549 71.2045L35.2494 70.6657C36.3121 70.4711 37.382 70.6419 38.4557 70.5864C39.1742 70.5515 40.0217 70.3292 40.6121 69.8502L40.6192 69.9056L40.6078 70.1375L40.5634 70.2947C40.2397 70.7948 39.8062 71.1284 39.241 71.3813" fill="url(#paint31_linear_87_1531)"/>
</g>
<mask id="mask32_87_1531" style="mask-type:luminance" maskUnits="userSpaceOnUse" x="0" y="1" width="8" height="9">
<path d="M0.182082 8.48415C-0.0452493 7.20666 -0.160023 5.81384 0.457099 4.76312C1.02044 3.79946 2.0706 3.49617 2.93723 3.24721C3.98074 2.96111 4.99042 2.72768 5.98014 2.21868L7.14951 1.33707L7.53542 2.34842L7.5393 2.49979C7.54373 3.6869 6.25072 4.33674 5.42346 4.76312C4.29068 5.35474 3.02372 5.52773 1.90148 6.14929C1.40579 6.42652 0.976636 6.83184 0.684432 7.41681L0.420507 8.4409L0.413849 9.08408L0.402765 9.68014L0.182082 8.48415Z" fill="white"/>
</mask>
<g mask="url(#mask32_87_1531)">
<path d="M0.182082 8.48415C-0.0452493 7.20666 -0.160023 5.81384 0.457099 4.76312C1.02044 3.79946 2.0706 3.49617 2.93723 3.24721C3.98074 2.96111 4.99042 2.72768 5.98014 2.21868L7.14951 1.33707L7.53542 2.34842L7.5393 2.49979C7.54373 3.6869 6.25072 4.33674 5.42346 4.76312C4.29068 5.35474 3.02372 5.52773 1.90148 6.14929C1.40579 6.42652 0.976636 6.83184 0.684432 7.41681L0.420507 8.4409L0.413849 9.08408L0.402765 9.68014L0.182082 8.48415Z" fill="url(#paint32_linear_87_1531)"/>
</g>
<mask id="mask33_87_1531" style="mask-type:luminance" maskUnits="userSpaceOnUse" x="0" y="9" width="10" height="8">
<path d="M9.03858 15.6645L9.06686 15.7228L9.08848 15.766L9.03858 15.6645ZM0.40332 9.68018C0.630652 10.7736 0.966653 11.8675 1.62259 12.6732C2.47646 13.7128 3.50722 14.1852 4.57956 14.5273C5.45007 14.7912 6.32724 14.8345 7.18944 15.0297L8.49298 15.4455L9.25094 16.0976L9.21434 16.015L8.99533 15.5276C8.73805 14.982 8.52127 14.1375 8.04886 13.7256L6.65881 13.0197C5.53657 12.6732 4.38882 12.5495 3.27989 12.0583C2.12105 11.5426 0.988281 10.6327 0.421062 9.17727L0.414404 9.08412L0.40332 9.68018Z" fill="white"/>
</mask>
<g mask="url(#mask33_87_1531)">
<path d="M9.03858 15.6645L9.06686 15.7228L9.08848 15.766L9.03858 15.6645ZM0.40332 9.68018C0.630652 10.7736 0.966653 11.8675 1.62259 12.6732C2.47646 13.7128 3.50722 14.1852 4.57956 14.5273C5.45007 14.7912 6.32724 14.8345 7.18944 15.0297L8.49298 15.4455L9.25094 16.0976L9.21434 16.015L8.99533 15.5276C8.73805 14.982 8.52127 14.1375 8.04886 13.7256L6.65881 13.0197C5.53657 12.6732 4.38882 12.5495 3.27989 12.0583C2.12105 11.5426 0.988281 10.6327 0.421062 9.17727L0.414404 9.08412L0.40332 9.68018Z" fill="url(#paint33_linear_87_1531)"/>
</g>
<mask id="mask34_87_1531" style="mask-type:luminance" maskUnits="userSpaceOnUse" x="6" y="15" width="4" height="7">
<path d="M7.44433 21.8911L6.62816 20.4878C5.32849 18.1269 8.09417 17.1371 8.49062 15.4455L9.24858 16.0975L9.45872 17.0983L9.02124 18.3542C8.52333 19.1881 7.80862 19.8596 7.5203 20.8665L7.47262 21.1548L7.44433 21.8911Z" fill="white"/>
</mask>
<g mask="url(#mask34_87_1531)">
<path d="M7.44433 21.8911L6.62816 20.4878C5.32849 18.1269 8.09417 17.1371 8.49062 15.4455L9.24858 16.0975L9.45872 17.0983L9.02124 18.3542C8.52333 19.1881 7.80862 19.8596 7.5203 20.8665L7.47262 21.1548L7.44433 21.8911Z" fill="url(#paint34_linear_87_1531)"/>
</g>
<mask id="mask35_87_1531" style="mask-type:luminance" maskUnits="userSpaceOnUse" x="7" y="21" width="7" height="3">
<path d="M7.47286 21.1548L8.07945 21.3971C9.03646 21.6832 9.96352 21.4626 10.91 21.6788C11.8371 21.8956 12.6494 23.2557 13.2776 23.9638L12.5911 23.5479L11.8803 23.4226C11.3064 23.3899 10.7475 23.4659 10.1737 23.4509C9.55877 23.4331 8.94165 23.2884 8.35003 22.892L7.44458 21.8912L7.47286 21.1548Z" fill="white"/>
</mask>
<g mask="url(#mask35_87_1531)">
<path d="M7.47286 21.1548L8.07945 21.3971C9.03646 21.6832 9.96352 21.4626 10.91 21.6788C11.8371 21.8956 12.6494 23.2557 13.2776 23.9638L12.5911 23.5479L11.8803 23.4226C11.3064 23.3899 10.7475 23.4659 10.1737 23.4509C9.55877 23.4331 8.94165 23.2884 8.35003 22.892L7.44458 21.8912L7.47286 21.1548Z" fill="url(#paint35_linear_87_1531)"/>
</g>
<mask id="mask36_87_1531" style="mask-type:luminance" maskUnits="userSpaceOnUse" x="12" y="23" width="3" height="12">
<path d="M12.7059 33.169C12.3333 31.1441 12.8207 29.407 13.0131 27.5872C13.1389 26.3574 13.0674 24.8476 12.5933 23.5479L12.6843 23.5807L13.0524 23.7753L13.2798 23.9638C13.9446 24.826 14.3299 25.7292 14.601 26.8121C15.3224 29.5085 14.2068 32.0429 14.9215 34.869L13.7888 34.0418L12.7059 33.169Z" fill="white"/>
</mask>
<g mask="url(#mask36_87_1531)">
<path d="M12.7059 33.169C12.3333 31.1441 12.8207 29.407 13.0131 27.5872C13.1389 26.3574 13.0674 24.8476 12.5933 23.5479L12.6843 23.5807L13.0524 23.7753L13.2798 23.9638C13.9446 24.826 14.3299 25.7292 14.601 26.8121C15.3224 29.5085 14.2068 32.0429 14.9215 34.869L13.7888 34.0418L12.7059 33.169Z" fill="url(#paint36_linear_87_1531)"/>
</g>
<mask id="mask37_87_1531" style="mask-type:luminance" maskUnits="userSpaceOnUse" x="84" y="55" width="12" height="10">
<path d="M95.5525 61.6877L88.2968 55.7466L84.8164 58.9048L92.0611 64.8997L95.5525 61.6877Z" fill="white"/>
</mask>
<g mask="url(#mask37_87_1531)">
<path d="M95.5525 61.6877L88.2968 55.7466L84.8164 58.9048L92.0611 64.8997L95.5525 61.6877Z" fill="url(#paint37_linear_87_1531)"/>
</g>
</g>
<defs>
<linearGradient id="paint0_linear_87_1531" x1="176.991" y1="48.5333" x2="185.912" y2="56.3964" gradientUnits="userSpaceOnUse">
<stop stop-color="#E58F24"/>
<stop offset="0.0605427" stop-color="#E58F24"/>
<stop offset="0.096401" stop-color="#C36D05"/>
<stop offset="0.16838" stop-color="#C36D05"/>
<stop offset="0.183805" stop-color="#B15900"/>
<stop offset="0.194087" stop-color="#B15900"/>
<stop offset="0.363753" stop-color="#FFBD4A"/>
<stop offset="0.54251" stop-color="#FBC26C"/>
<stop offset="0.706821" stop-color="#F39C31"/>
<stop offset="0.906924" stop-color="#FFDF6C"/>
<stop offset="0.974293" stop-color="#E88F2D"/>
<stop offset="0.984564" stop-color="#E88F2D"/>
<stop offset="0.987147" stop-color="#E78F2D"/>
<stop offset="1" stop-color="#E78F2D"/>
</linearGradient>
<linearGradient id="paint1_linear_87_1531" x1="69.0159" y1="30.3299" x2="73.0835" y2="20.8477" gradientUnits="userSpaceOnUse">
<stop stop-color="#E58F24"/>
<stop offset="0.0605427" stop-color="#E58F24"/>
<stop offset="0.096401" stop-color="#C36D05"/>
<stop offset="0.16838" stop-color="#C36D05"/>
<stop offset="0.183805" stop-color="#B15900"/>
<stop offset="0.194087" stop-color="#B15900"/>
<stop offset="0.363753" stop-color="#FFBD4A"/>
<stop offset="0.54251" stop-color="#FBC26C"/>
<stop offset="0.706821" stop-color="#F39C31"/>
<stop offset="0.906924" stop-color="#FFDF6C"/>
<stop offset="0.974293" stop-color="#E88F2D"/>
<stop offset="0.984564" stop-color="#E88F2D"/>
<stop offset="0.987147" stop-color="#E78F2D"/>
<stop offset="1" stop-color="#E78F2D"/>
</linearGradient>
<linearGradient id="paint2_linear_87_1531" x1="210.962" y1="31.7761" x2="227.556" y2="24.6458" gradientUnits="userSpaceOnUse">
<stop stop-color="#E58F24"/>
<stop offset="0.0605427" stop-color="#E58F24"/>
<stop offset="0.096401" stop-color="#C36D05"/>
<stop offset="0.16838" stop-color="#C36D05"/>
<stop offset="0.183805" stop-color="#B15900"/>
<stop offset="0.194087" stop-color="#B15900"/>
<stop offset="0.363753" stop-color="#FFBD4A"/>
<stop offset="0.54251" stop-color="#FBC26C"/>
<stop offset="0.706821" stop-color="#F39C31"/>
<stop offset="0.906924" stop-color="#FFDF6C"/>
<stop offset="0.974293" stop-color="#E88F2D"/>
<stop offset="0.984564" stop-color="#E88F2D"/>
<stop offset="0.987147" stop-color="#E78F2D"/>
<stop offset="1" stop-color="#E78F2D"/>
</linearGradient>
<linearGradient id="paint3_linear_87_1531" x1="386.57" y1="23.9339" x2="388.846" y2="29.8786" gradientUnits="userSpaceOnUse">
<stop stop-color="#E58F24"/>
<stop offset="0.0605427" stop-color="#E58F24"/>
<stop offset="0.096401" stop-color="#C36D05"/>
<stop offset="0.16838" stop-color="#C36D05"/>
<stop offset="0.183805" stop-color="#B15900"/>
<stop offset="0.194087" stop-color="#B15900"/>
<stop offset="0.363753" stop-color="#FFBD4A"/>
<stop offset="0.54251" stop-color="#FBC26C"/>
<stop offset="0.706821" stop-color="#F39C31"/>
<stop offset="0.906924" stop-color="#FFDF6C"/>
<stop offset="0.974293" stop-color="#E88F2D"/>
<stop offset="0.984564" stop-color="#E88F2D"/>
<stop offset="0.987147" stop-color="#E78F2D"/>
<stop offset="1" stop-color="#E78F2D"/>
</linearGradient>
<linearGradient id="paint4_linear_87_1531" x1="142.777" y1="34.8703" x2="144.892" y2="42.3553" gradientUnits="userSpaceOnUse">
<stop stop-color="#E58F24"/>
<stop offset="0.0605427" stop-color="#E58F24"/>
<stop offset="0.096401" stop-color="#C36D05"/>
<stop offset="0.16838" stop-color="#C36D05"/>
<stop offset="0.183805" stop-color="#B15900"/>
<stop offset="0.194087" stop-color="#B15900"/>
<stop offset="0.363753" stop-color="#FFBD4A"/>
<stop offset="0.54251" stop-color="#FBC26C"/>
<stop offset="0.706821" stop-color="#F39C31"/>
<stop offset="0.906924" stop-color="#FFDF6C"/>
<stop offset="0.974293" stop-color="#E88F2D"/>
<stop offset="0.984564" stop-color="#E88F2D"/>
<stop offset="0.987147" stop-color="#E78F2D"/>
<stop offset="1" stop-color="#E78F2D"/>
</linearGradient>
<linearGradient id="paint5_linear_87_1531" x1="106.503" y1="24.2018" x2="108.619" y2="31.6868" gradientUnits="userSpaceOnUse">
<stop stop-color="#E58F24"/>
<stop offset="0.0605427" stop-color="#E58F24"/>
<stop offset="0.096401" stop-color="#C36D05"/>
<stop offset="0.16838" stop-color="#C36D05"/>
<stop offset="0.183805" stop-color="#B15900"/>
<stop offset="0.194087" stop-color="#B15900"/>
<stop offset="0.363753" stop-color="#FFBD4A"/>
<stop offset="0.54251" stop-color="#FBC26C"/>
<stop offset="0.706821" stop-color="#F39C31"/>
<stop offset="0.906924" stop-color="#FFDF6C"/>
<stop offset="0.974293" stop-color="#E88F2D"/>
<stop offset="0.984564" stop-color="#E88F2D"/>
<stop offset="0.987147" stop-color="#E78F2D"/>
<stop offset="1" stop-color="#E78F2D"/>
</linearGradient>
<linearGradient id="paint6_linear_87_1531" x1="306.195" y1="0.0232465" x2="298.693" y2="3.38238" gradientUnits="userSpaceOnUse">
<stop stop-color="#C27800"/>
<stop offset="0.227417" stop-color="#FFA721"/>
<stop offset="0.396761" stop-color="#FFA721"/>
<stop offset="0.696356" stop-color="#EB8D00"/>
<stop offset="1" stop-color="#FFC147"/>
</linearGradient>
<linearGradient id="paint7_linear_87_1531" x1="308.604" y1="9.6777" x2="302.733" y2="12.3066" gradientUnits="userSpaceOnUse">
<stop stop-color="#FFC147"/>
<stop offset="0.303644" stop-color="#EB8D00"/>
<stop offset="0.603239" stop-color="#FFA721"/>
<stop offset="0.772583" stop-color="#FFA721"/>
<stop offset="1" stop-color="#AD5700"/>
</linearGradient>
<linearGradient id="paint8_linear_87_1531" x1="310.771" y1="15.9371" x2="305.127" y2="18.4641" gradientUnits="userSpaceOnUse">
<stop stop-color="#C27800"/>
<stop offset="0.227417" stop-color="#FFA721"/>
<stop offset="0.396761" stop-color="#FFA721"/>
<stop offset="0.696356" stop-color="#EB8D00"/>
<stop offset="1" stop-color="#FFC147"/>
</linearGradient>
<linearGradient id="paint9_linear_87_1531" x1="309.584" y1="22.6028" x2="307.118" y2="23.707" gradientUnits="userSpaceOnUse">
<stop stop-color="#FFC147"/>
<stop offset="0.303644" stop-color="#EB8D00"/>
<stop offset="0.603239" stop-color="#FFA721"/>
<stop offset="0.772583" stop-color="#FFA721"/>
<stop offset="1" stop-color="#AD5700"/>
</linearGradient>
<linearGradient id="paint10_linear_87_1531" x1="263.13" y1="3.11802" x2="256.709" y2="2.65425" gradientUnits="userSpaceOnUse">
<stop stop-color="#FFC147"/>
<stop offset="0.303644" stop-color="#EB8D00"/>
<stop offset="0.603239" stop-color="#FFA721"/>
<stop offset="0.772583" stop-color="#FFA721"/>
<stop offset="1" stop-color="#AD5700"/>
</linearGradient>
<linearGradient id="paint11_linear_87_1531" x1="262.073" y1="9.67017" x2="255.905" y2="9.22473" gradientUnits="userSpaceOnUse">
<stop stop-color="#C27800"/>
<stop offset="0.227417" stop-color="#FFA721"/>
<stop offset="0.396761" stop-color="#FFA721"/>
<stop offset="0.696356" stop-color="#EB8D00"/>
<stop offset="1" stop-color="#FFC147"/>
</linearGradient>
<linearGradient id="paint12_linear_87_1531" x1="257.876" y1="14.9735" x2="255.175" y2="14.7785" gradientUnits="userSpaceOnUse">
<stop stop-color="#FFC147"/>
<stop offset="0.303644" stop-color="#EB8D00"/>
<stop offset="0.603239" stop-color="#FFA721"/>
<stop offset="0.772583" stop-color="#FFA721"/>
<stop offset="1" stop-color="#AD5700"/>
</linearGradient>
<linearGradient id="paint13_linear_87_1531" x1="256.301" y1="19.7819" x2="244.441" y2="18.9253" gradientUnits="userSpaceOnUse">
<stop stop-color="#994B00"/>
<stop offset="0.227417" stop-color="#FFA721"/>
<stop offset="0.396761" stop-color="#FFA721"/>
<stop offset="0.696356" stop-color="#EB8D00"/>
<stop offset="1" stop-color="#FFC147"/>
</linearGradient>
<linearGradient id="paint14_linear_87_1531" x1="349.959" y1="16.0063" x2="340.843" y2="22.4061" gradientUnits="userSpaceOnUse">
<stop stop-color="#FFC147"/>
<stop offset="0.303644" stop-color="#EB8D00"/>
<stop offset="0.603239" stop-color="#FFA721"/>
<stop offset="0.772583" stop-color="#FFA721"/>
<stop offset="1" stop-color="#AD5700"/>
</linearGradient>
<linearGradient id="paint15_linear_87_1531" x1="354.648" y1="22.579" x2="347.921" y2="27.3018" gradientUnits="userSpaceOnUse">
<stop stop-color="#C27800"/>
<stop offset="0.227417" stop-color="#FFA721"/>
<stop offset="0.396761" stop-color="#FFA721"/>
<stop offset="0.696356" stop-color="#EB8D00"/>
<stop offset="1" stop-color="#FFC147"/>
</linearGradient>
<linearGradient id="paint16_linear_87_1531" x1="358.853" y1="31.5934" x2="353.584" y2="35.2927" gradientUnits="userSpaceOnUse">
<stop stop-color="#FFC147"/>
<stop offset="0.303644" stop-color="#EB8D00"/>
<stop offset="0.603239" stop-color="#FFA721"/>
<stop offset="0.772583" stop-color="#FFA721"/>
<stop offset="1" stop-color="#AD5700"/>
</linearGradient>
<linearGradient id="paint17_linear_87_1531" x1="362.175" y1="37.34" x2="357.114" y2="40.8931" gradientUnits="userSpaceOnUse">
<stop stop-color="#C27800"/>
<stop offset="0.227417" stop-color="#FFA721"/>
<stop offset="0.396761" stop-color="#FFA721"/>
<stop offset="0.696356" stop-color="#EB8D00"/>
<stop offset="1" stop-color="#FFC147"/>
</linearGradient>
<linearGradient id="paint18_linear_87_1531" x1="362.274" y1="44.102" x2="360.058" y2="45.6576" gradientUnits="userSpaceOnUse">
<stop stop-color="#FFC147"/>
<stop offset="0.303644" stop-color="#EB8D00"/>
<stop offset="0.603239" stop-color="#FFA721"/>
<stop offset="0.772583" stop-color="#FFA721"/>
<stop offset="1" stop-color="#AD5700"/>
</linearGradient>
<linearGradient id="paint19_linear_87_1531" x1="364.093" y1="48.8231" x2="354.361" y2="55.6553" gradientUnits="userSpaceOnUse">
<stop stop-color="#994B00"/>
<stop offset="0.227417" stop-color="#FFA721"/>
<stop offset="0.396761" stop-color="#FFA721"/>
<stop offset="0.696356" stop-color="#EB8D00"/>
<stop offset="1" stop-color="#FFC147"/>
</linearGradient>
<linearGradient id="paint20_linear_87_1531" x1="189.204" y1="3.43154" x2="182.958" y2="-0.37671" gradientUnits="userSpaceOnUse">
<stop stop-color="#FFC147"/>
<stop offset="0.303644" stop-color="#EB8D00"/>
<stop offset="0.603239" stop-color="#FFA721"/>
<stop offset="0.772583" stop-color="#FFA721"/>
<stop offset="1" stop-color="#AD5700"/>
</linearGradient>
<linearGradient id="paint21_linear_87_1531" x1="185.74" y1="9.12803" x2="179.129" y2="5.09708" gradientUnits="userSpaceOnUse">
<stop stop-color="#C27800"/>
<stop offset="0.227417" stop-color="#FFA721"/>
<stop offset="0.396761" stop-color="#FFA721"/>
<stop offset="0.696356" stop-color="#EB8D00"/>
<stop offset="1" stop-color="#FFC147"/>
</linearGradient>
<linearGradient id="paint22_linear_87_1531" x1="181.516" y1="14.218" x2="175.769" y2="10.7142" gradientUnits="userSpaceOnUse">
<stop stop-color="#FFC147"/>
<stop offset="0.303644" stop-color="#EB8D00"/>
<stop offset="0.603239" stop-color="#FFA721"/>
<stop offset="0.772583" stop-color="#FFA721"/>
<stop offset="1" stop-color="#AD5700"/>
</linearGradient>
<linearGradient id="paint23_linear_87_1531" x1="178.832" y1="18.6066" x2="175.201" y2="16.3924" gradientUnits="userSpaceOnUse">
<stop stop-color="#C27800"/>
<stop offset="0.227417" stop-color="#FFA721"/>
<stop offset="0.396761" stop-color="#FFA721"/>
<stop offset="0.696356" stop-color="#EB8D00"/>
<stop offset="1" stop-color="#FFC147"/>
</linearGradient>
<linearGradient id="paint24_linear_87_1531" x1="176.253" y1="21.7278" x2="173.137" y2="19.8279" gradientUnits="userSpaceOnUse">
<stop stop-color="#FFC147"/>
<stop offset="0.303644" stop-color="#EB8D00"/>
<stop offset="0.603239" stop-color="#FFA721"/>
<stop offset="0.772583" stop-color="#FFA721"/>
<stop offset="1" stop-color="#AD5700"/>
</linearGradient>
<linearGradient id="paint25_linear_87_1531" x1="173.492" y1="26.2682" x2="167.684" y2="22.7263" gradientUnits="userSpaceOnUse">
<stop stop-color="#994B00"/>
<stop offset="0.227417" stop-color="#FFA721"/>
<stop offset="0.396761" stop-color="#FFA721"/>
<stop offset="0.696356" stop-color="#EB8D00"/>
<stop offset="1" stop-color="#FFC147"/>
</linearGradient>
<linearGradient id="paint26_linear_87_1531" x1="49.6248" y1="57.3113" x2="45.6184" y2="54.8684" gradientUnits="userSpaceOnUse">
<stop stop-color="#FFC147"/>
<stop offset="0.303644" stop-color="#EB8D00"/>
<stop offset="0.603239" stop-color="#FFA721"/>
<stop offset="0.772583" stop-color="#FFA721"/>
<stop offset="1" stop-color="#AD5700"/>
</linearGradient>
<linearGradient id="paint27_linear_87_1531" x1="47.4011" y1="60.9653" x2="43.1604" y2="58.3796" gradientUnits="userSpaceOnUse">
<stop stop-color="#C27800"/>
<stop offset="0.227417" stop-color="#FFA721"/>
<stop offset="0.396761" stop-color="#FFA721"/>
<stop offset="0.696356" stop-color="#EB8D00"/>
<stop offset="1" stop-color="#FFC147"/>
</linearGradient>
<linearGradient id="paint28_linear_87_1531" x1="44.6924" y1="64.2303" x2="41.0062" y2="61.9828" gradientUnits="userSpaceOnUse">
<stop stop-color="#FFC147"/>
<stop offset="0.303644" stop-color="#EB8D00"/>
<stop offset="0.603239" stop-color="#FFA721"/>
<stop offset="0.772583" stop-color="#FFA721"/>
<stop offset="1" stop-color="#AD5700"/>
</linearGradient>
<linearGradient id="paint29_linear_87_1531" x1="42.9711" y1="67.0454" x2="40.6417" y2="65.6251" gradientUnits="userSpaceOnUse">
<stop stop-color="#C27800"/>
<stop offset="0.227417" stop-color="#FFA721"/>
<stop offset="0.396761" stop-color="#FFA721"/>
<stop offset="0.696356" stop-color="#EB8D00"/>
<stop offset="1" stop-color="#FFC147"/>
</linearGradient>
<linearGradient id="paint30_linear_87_1531" x1="41.3162" y1="69.0475" x2="39.3175" y2="67.8287" gradientUnits="userSpaceOnUse">
<stop stop-color="#FFC147"/>
<stop offset="0.303644" stop-color="#EB8D00"/>
<stop offset="0.603239" stop-color="#FFA721"/>
<stop offset="0.772583" stop-color="#FFA721"/>
<stop offset="1" stop-color="#AD5700"/>
</linearGradient>
<linearGradient id="paint31_linear_87_1531" x1="39.5458" y1="71.96" x2="35.8197" y2="69.688" gradientUnits="userSpaceOnUse">
<stop stop-color="#994B00"/>
<stop offset="0.227417" stop-color="#FFA721"/>
<stop offset="0.396761" stop-color="#FFA721"/>
<stop offset="0.696356" stop-color="#EB8D00"/>
<stop offset="1" stop-color="#FFC147"/>
</linearGradient>
<linearGradient id="paint32_linear_87_1531" x1="7.86976" y1="4.99101" x2="-0.150265" y2="6.00728" gradientUnits="userSpaceOnUse">
<stop stop-color="#C27800"/>
<stop offset="0.227417" stop-color="#FFA721"/>
<stop offset="0.396761" stop-color="#FFA721"/>
<stop offset="0.696356" stop-color="#EB8D00"/>
<stop offset="1" stop-color="#FFC147"/>
</linearGradient>
<linearGradient id="paint33_linear_87_1531" x1="8.74749" y1="12.0954" x2="0.84024" y2="13.0974" gradientUnits="userSpaceOnUse">
<stop stop-color="#FFC147"/>
<stop offset="0.303644" stop-color="#EB8D00"/>
<stop offset="0.603239" stop-color="#FFA721"/>
<stop offset="0.772583" stop-color="#FFA721"/>
<stop offset="1" stop-color="#AD5700"/>
</linearGradient>
<linearGradient id="paint34_linear_87_1531" x1="9.64945" y1="18.4573" x2="6.22227" y2="18.8916" gradientUnits="userSpaceOnUse">
<stop stop-color="#C27800"/>
<stop offset="0.227417" stop-color="#FFA721"/>
<stop offset="0.396761" stop-color="#FFA721"/>
<stop offset="0.696356" stop-color="#EB8D00"/>
<stop offset="1" stop-color="#FFC147"/>
</linearGradient>
<linearGradient id="paint35_linear_87_1531" x1="13.0663" y1="22.2261" x2="7.56026" y2="22.9238" gradientUnits="userSpaceOnUse">
<stop stop-color="#FFC147"/>
<stop offset="0.303644" stop-color="#EB8D00"/>
<stop offset="0.603239" stop-color="#FFA721"/>
<stop offset="0.772583" stop-color="#FFA721"/>
<stop offset="1" stop-color="#AD5700"/>
</linearGradient>
<linearGradient id="paint36_linear_87_1531" x1="14.9526" y1="29.0593" x2="12.2184" y2="29.4058" gradientUnits="userSpaceOnUse">
<stop stop-color="#994B00"/>
<stop offset="0.227417" stop-color="#FFA721"/>
<stop offset="0.396761" stop-color="#FFA721"/>
<stop offset="0.696356" stop-color="#EB8D00"/>
<stop offset="1" stop-color="#FFC147"/>
</linearGradient>
<linearGradient id="paint37_linear_87_1531" x1="86.4732" y1="57.0224" x2="93.8965" y2="63.5654" gradientUnits="userSpaceOnUse">
<stop stop-color="#E58F24"/>
<stop offset="0.0605427" stop-color="#E58F24"/>
<stop offset="0.096401" stop-color="#C36D05"/>
<stop offset="0.16838" stop-color="#C36D05"/>
<stop offset="0.183805" stop-color="#B15900"/>
<stop offset="0.194087" stop-color="#B15900"/>
<stop offset="0.363753" stop-color="#FFBD4A"/>
<stop offset="0.54251" stop-color="#FBC26C"/>
<stop offset="0.706821" stop-color="#F39C31"/>
<stop offset="0.906924" stop-color="#FFDF6C"/>
<stop offset="0.974293" stop-color="#E88F2D"/>
<stop offset="0.984564" stop-color="#E88F2D"/>
<stop offset="0.987147" stop-color="#E78F2D"/>
<stop offset="1" stop-color="#E78F2D"/>
</linearGradient>
<clipPath id="clip0_87_1531">
<rect width="390" height="72" fill="white"/>
</clipPath>
</defs>
</svg>
